/* XPM */
static char *cropped_45_png[] = {
/* columns rows colors chars-per-pixel */
"64 64 22 1 ",
"  c #28200C",
". c #403018",
"X c #5C4020",
"o c #483818",
"O c #382C14",
"+ c #706C00",
"@ c #848400",
"# c #9C9C00",
"$ c #585400",
"% c #B4AC00",
"& c black",
"* c #404000",
"= c #7C7C7C",
"- c gray44",
"; c #000034",
": c #202020",
"> c gray33",
", c #646464",
"< c gray22",
"1 c #00002C",
"2 c #2C2C2C",
"3 c white",
/* pixels */
"                                                                ",
"................................................................",
"XXXXXXXXXXXXXXXXXXXXXXXXXXXXXXXXXXXXXXXXXXXXXXXXXXXXXXXXXXXXXXXX",
"                                                                ",
"  .oooo X  XO    oo . .+@##++Xo o ++##@+  O X  X o  o o oo X  X.",
"  .oooO X  X.    oo . .  $$##@+ +@#+$$OO Oo X  X o  o o oo X  X.",
"  Oooo  X  Xo    oo ++#%# O @#####@  O$@%%% .  O o  o o oo X  X.",
"   .oo  X  Xo   O@#%.+#%%#@@+++++++%%%%%@%o@%%.O .  o o oo X  X.",
".  OoO  X  XoO  @+#%%%%$$$$+$&&&&&$+$$++%%%@@%%O O  o o .o X  X ",
".   O   X  Xo.+#o@%%$$$++#%&&&&&&&&&$@@@+$$%%% @%O  . o .o X  X ",
"o       X  Xo+@%%%$$$#&++#%&&&&&&&&&$@@%&$$++%%@%%  O o Oo X  X ",
"o       X  Xo@#%%$++#%&++#&&&&&&&&&&&@%%&$@@@$++%%  O . Oo X  X ",
".o    o X  X+@%$$$&+#&&&&&&&&&&&&&&&&&&&&&@%&$@%+@@ O O  o X  X ",
".o    o +@$$*@$+%&&&&&&&&&&&&&&&&&&&&&&&&&&&&&%%@@*$$@@  o X  X ",
"Ooo  oo+@%%%$$&&&&&&&&&&&&&&&&&&&&&&&&&&&&&&&&&&&$$*@@@% . X  X ",
" ooo oO@%%%++$&&&&&=========================&&&&&$@%+@%% O X  X ",
" .ooOo  $%++@#%&&&&-;;;;;;;;;;;;;;;;;;;;;;;-&&&&$@@@%+$O O X  X ",
" .oooo +%%$@#%%&&&&:-:>,,,,,,,,,,,,,,,,,>:-:&&&&@@@%%+$@ O X  X ",
" O.ooo+@%+$&%%&&&&&&<>;,:1111111111111:,;><&&&&&&%% $%+@%O X  X.",
"  .ooO@%%$@%&&&&&&&&:-:><1111111111111<>:-:&&&&&&&&$@%+%%O X  X.",
"  Ooo  %+##%&&&&&&&&&<>;>:11111111111:>;><&&&&&&&&&%%%%+ O o  X.",
"   oo$+%$&#&&=-:&&&&&:-:,<11111111111<,:-:&&&&&:-=&&% %+@@ .  X.",
"   O +%%$+&&&=;-<:&&&&<>;>:111111111:>;><&&&&:<-;=&&&++%@% .  X.",
"     @%%$+&&&=;;>-<:&&:-:,<111111111<,:-:&&:<->:;=&&&+%%%% .  X.",
"      @#$&&&&=;>;:>-<:&<>2>111111111>2><&:<->:;>;=&&&&%%@  .  XO",
".   $$*&&&&&&=;,,>;:>-<&-;,:1111111:,;-&<->:;>,,;=&&&&&&*$$.  X ",
".  +@%%$$&&&&=;,:<,>;:>--:<<1111111<<:-->:;>,<:,;=&&&&$@%*@%  X ",
".  @%%+$#%&&&=;,11:<,>2;:>;,1111111,;>:;2>,<:11,;=&&&$@@%+%%  X ",
"O   %%+@#%&&&=;,1111:<>,<;;,1111111,;;<,><:1111,;=&&&%%%%+%.  X ",
" . $$%$@%&&&&=;,1111111:<>,,1111111,,><:1111111,;=&&&&%%%$$$  X ",
" . @%%$$&&&&&=;,1111111111111111111111111111111,;=&&&&&$%+@%  X ",
" O +%%$#%&&&&=;,1111111111111111111111111111111,;=&&&&$@%+%%  X ",
"  . $%$#%&&&&=;,1111111111111111111111111111111,;=&&&&%%%+$.  X ",
"  .$$%$&&&&&&=;,1111111111111111111111111111111,;=&&&&&&$$$$  X ",
"  O+%%$%&&&&&=;,1111111111111111111111111111111,;=&&&&&$%+%%  X ",
"   O%%$#O  O =;,1111111111111111111111111111111,;=     @%+%.  X ",
"     %+ O  O =;,1111111111111111111111111111111,;=      @@ .  XO",
"        O  O =;,1111111:<>,,1111111,,><:1111111,;=         .  X.",
"        X  Xo=;,1111:<>,<;;,1111111,;;<,><:1111,;=   O     .  X.",
"        X  X.=;,11:<>,2;:>;>1111111>;>:;2,><:11,;=   .  .o X  X.",
"      O X  X.=;,:<>,;:>--:<<1111111<<:-->:;,><:,;=   .  Oo X  X ",
".     O X  XO=;,,>;:>-< -;,:1111111:,;- <->:;>,,;=   o  Oo X  X ",
".     . X  X =;>;:>-<  <>2>111111111>2><  <->:;>;=   o   . X  X ",
".O   O. X  X =;;>-<    -:,<111111111<,:-    <->:;=   o   . X  X ",
"..   .O X  X =;-<     <>;>:111111111:>;><   O <-;=   o   O X  X ",
"O.O O.  X  X =-      o-:,<11111111111<,:-   O  O-=   oO  O X  X ",
" ..O..  X  X        .<>;>:11111111111:,;><  O  O     oO    X  X ",
" ..O..  X  X        o-:><1111111111111<>:-  .  O     o.    X  X ",
" .ooo.  X  X        <>;,:1111111111111:,;>< X  .     o.    X  X ",
" Oooo.  X  X       O-:>,,,,,,,,,,,,,,,,,>:- .  X o   .oO   X  X ",
"  .oo.  X  XO      -;;;;;;;;;;;;;;;;;;;;;;;-.  X o   .oO   X  X ",
"  .ooO  X  X.      =========================O  X o   Oo.   X  X ",
"  Oo.O  X  Xo             O  O    O  O      O  X o   Oo.O  X  X ",
"   ..   X  XoO    Oo      O  O    O  O      O  X o    .oO  X  XO",
"   .O   X  X..    .oO     O  O    O  O      .  X o    Oo.  X  XO",
"   OO   X  X.o    .o   .  X  Xooo X  X O.   X  X o    Oo.  X  X.",
"        X  XOo.   oo   .  X  Xooo X  X  O   X  X o     .o  X  X.",
"        X  X .o. oo.   .  X  Xooo X  X      X  X .O    Oo. X  Xo",
"        X  X OoooooO   o  X  Xoo. X  X      X  X ..    Oo. X  Xo",
"O     . X  X  oooo.   Oo  X  Xoo. X  X      X  X O.     .. X  Xo",
"O     . X  X  O.o.O   .o  X  Xo.O X  X      X  X Oo     OO X  Xo",
".     . X  X   O.O    .o  X  Xo.O X  X      X  X  o        X  Xo",
".O    . X  X    O    .ooO X  X.O  X  X      X  XO oO       X  Xo",
"OOOOOOO X  XO       OOOOO X  XO   X  XO   O X  XO OO       X  XO"
};
