/* XPM */
static char *cropped_97_png[] = {
/* columns rows colors chars-per-pixel */
"64 64 44 1 ",
"  c #202020",
". c #2C2C2C",
"X c gray44",
"o c #7C7C7C",
"O c gray55",
"+ c #989898",
"@ c gray66",
"# c gray33",
"$ c #646464",
"% c #400000",
"& c #28200C",
"* c #302410",
"= c #382C14",
"- c #4C4C4C",
"; c #403018",
": c #543C1C",
"> c #5C4020",
", c #483818",
"< c #744C28",
"1 c #905C34",
"2 c #A0643C",
"3 c #885830",
"4 c #B47044",
"5 c #BC7848",
"6 c #C87C4C",
"7 c #D08050",
"8 c #A86840",
"9 c #4C0000",
"0 c #80502C",
"q c #6C4824",
"w c #580000",
"e c gray25",
"r c #484848",
"t c gray11",
"y c #640000",
"u c #9C6038",
"i c #700000",
"p c #7C0000",
"a c gray22",
"s c #880000",
"d c #980000",
"f c #F0945C",
"g c #FCB890",
"h c white",
/* pixels */
" . XoO+@@@@@@@@@@@@@@@@@@@@@+OoX . XoO+@@@@@@@@@@@@@@@@@@@@@+OoX",
" . #++++++++++++OOOO+O+O+O+O+O+$ . #++++++++++++OOOO+O+O+O+O+O+$",
" . #++O%%%%%%%%%%%%%%%&&&******&&&%%%%%%%%%%%%%%%%%%%%%%%%%%X+O$",
" . #OO+%%%%%%%%%%%%%%&&*=====****&&&&%%%%%%%%%%%%%%%%%%%%%%%-oO$",
" . #O+O%%%%%%%%%%%%**==;:>>>::;;;;*&&&&%%%%%%%%%%%%%%%%%%%%%-Oo$",
" . #O+O%%%%%%%%%%%=;,,:<12233<<<<<:;&&&&&%%%%%%%%%%%%%%%%%%%-Oo$",
" . #OO+%%%%%%%%%%;::<145666766666688<>=&&&&%%%%%%%%%%%%%%%%%-oo$",
" . #OOO%%%%%%%%9;>345566666666666665443>,*&&%%%%%%%%%%%%%%%%-oO$",
" . #OOo%%%%%%%%9>385566666666666665544420>*&&&%%%%%%%%%%%%%%-oo$",
" . #oXO%%%%%%99q34555556666666665555554420q;&&&%%%%%%%%%%%%%-Xo$",
" . #o$X9%9%99w>145555555666666555555555423<>;&&&%%%9%9%9%9%%eoX$",
" . #$$$99999ww08455555555656555444455555823<>,&&&%%%999%999%eoX$",
" . #X$Xw9w9ww>254556666656565481<<344566420qq>,*&&%%99999w99e$$$",
" . rrrrwwwwww0445556666656882<:;;=;q>qq043<>>>q;&&&%9999w9w9.rrr",
"       wwwww>445555554255641:;&&&;;>>:;;:>q:;:>,;&&%%99www9wt   ",
"       wwwww04555550q><4664<=&&&=:00q:;=*&&==;:,;&&&%%wwwwww    ",
".......wwyw>245553>;;;:1664<*&&*,:;;=&&&&**&*=;;;;&&&%9wwwww....",
"@@@@@@@wyyy0855u3>;***&<6640*&*===,&&&&&&&&*&=;;;=&&&&9wwwww#@@@",
"OOO+O+Oywyi1445421:;;;*<6640&&&&:uq:;;*&&&&&*&;;;*&&&&%wwywy#OOO",
"OOOO+O+wyyq2445420>:==&<664<&&;q24444u>,;;=***;;=&&&&&%wyyyw-OOO",
"OOO+O+Oyy:044441:**,;;;1664<,;q8554u10<<<q>:::,;=&&&&&&9wywy-OOO",
"+OoOOOOyy,34441;;&=0:0845520>q018546555555810>,;*&&&&&&%yyyy#O++",
"o+ooOoOy:,1441:*;q144455551qq82q<4566555482u3q:;*&&&&&&%yyyy-+oo",
"OO+OOO+y,,u48>;>284455554<:;,::,:244444888210q:;&&&&&&&&wyyy-+OO",
"+OoOOOOy;,244q<484555558,;*&&&&&&:454482u110q>,=&&&&&&&&9yyy#O++",
"o+ooOoOy=,248324555558q,*&&&&&&&&&=4482u130<>,;=&&&&&&&&%yyy-+oo",
"oooooOoy=,25445566541>;&&&&&&&&&&&&:22u130qq:;=*&&&&&&&&&yyy-ooo",
"XoOoOXoy=,2555566652q=&&&&&&&&&&&&&&>2110qq:;=*&&&&&&&&&&wyy-oXX",
"oXXoXooi=,255556654q;&&&&&&&&&&&&&&&&q030q>;=*&&&&&&&&&&&wyyeXoo",
"X$X$X$Xy;,255556551,*q&&&&&&&&&&&&&&&&q<q>:;=*&&&&&&&&&&&wyyeoXX",
"XX$X$X$i,,14555654<;&;&&&&&&&&&&&&&&&&=>q>:;=*&&&&&&&&&&&9yi-XXX",
"rrrrrrri:,04555554q*&&&&&&&&:&&&&&&&&&&:<q>,=*&&&&&&&&&&&&9y.rrr",
"       ip,q8555558;&;&&&&:*&&&&&&&&&&&&;<3q:;*&&&&&&&&&&&&&it   ",
"       ii,q8555551=&&&&*&&&&&&&&&&&&&&&=>30:;*&&&&&&&&&&&&&i    ",
".......pi,>2555553;&,&*&&*&&&&&&&&&&&&&=:30>;*&&&&&&&&&&&&&p....",
" . XoO+ip:,2455551=&q:2q&& e#a t &&&&&&&:03>;*&&&&&&&&&&&&&i#OoX",
" . #+++pi>,2455552q&811:&.&&&&&&&&&&&&&=:03>;*&&&&&&&&&&&&&p#O+$",
" . #++Oppp,1455558>*452=&&&&&&&&&&&&&&&*:q0>;*&&&&&&&*&&&&&p-+O$",
" . #OO+ppp,1455558<>561&&&&&&&&&&&&&&&&&:qq:=&&&&&&&&*&&&&%p-oO$",
" . #O+Opp<1245555510563&&&&%%%%%%%&&&=*=:q>;=&&&&&&&&&&&&&9p-Oo$",
" . #OO+sp1:04555554466<&&%%%%%%w%%%&*;==q3<,=&&&&&&&&&&&&&wp-oo$",
" . #OOOps0,q8555558556<&&%%%%%%%%%%&,;;:221:=&&&&&&&&&&&&%pp-oO$",
" . #OOosp0;;2555562855<&%%%%%%.e;=;::;:3441:=&&&&&&&&&&&&yps-oo$",
" . #oXOss<;;08555528858=&;$Xq<1523q,;;>8542:=&&&&&&&&&&%ypsp-Xo$",
" . #o$Xss<:;0455568u2562q<84645420:;&=>2542:=&&&&&&&&&&ypssseoX$",
" . #$$$ss<0q0455555825565566654u1>;*&=:0443,*&&&&&&&&&ipsssseoX$",
" . #X$Xss<003855566585666566555520:;=;:048<;&&&&&&&&&&sssssse$$$",
" . rrrrsss<112855565586666666655520>;:q252>*&&&&&&&&&9ssssss.rrr",
" .     sssq<<18555665566666666655410q02840;&&&&&&&&&&wsssssst   ",
"       ssssqq<345556566556666665542331220:=&&&&&&&&&%yssssss    ",
".......ssss>>;<254555666556666655413333q;*&&&&&&&&&&9pssssss....",
"@@@@@@@sssd:;*0145455666655566655410<q>;*&&&&&&&&&&%wsssssss#@@@",
"OOO+O+Odsdsdsdq02454556666555555423<>;=&&&&&&&&&&&&%ydsdsdsd#OOO",
"OOOO+O+ddsdsdsdq025544556655554820q,=&&&&&&&&&&&&&&%ysdsdsds-OOO",
"OOO+O+Odsdsdsdsqq02558455554823<q:;*&&&&&&&&&&&&&&&%ydsdsdsd-OOO",
"OO+OOO+dddddddddqq0255884810<q:;=*&&&&&&&&&&&&&&&&&=yddddddd-+OO",
"+OoOOOOdddddddddq<q028820q:;==*&&&&&&&&&&&&&&&&&&&&;0uddsddd#O++",
"o+ooOoOddddddddddq<q31u10>;&&&&&&&&&&&&&&&&&&&&&&&&&66dddddd-+oo",
"oooooOoddddddddddqq<q<000q;**&&&&&&&&&&&&&&&&&&&&&&ff6dddddd-ooo",
"XoOoOXodddddddddddqq<qqq<>>=&&&&&&&&&&&&&&&&&&&&&:fgf6dddddd-oXX",
"oXXoXooddddddddddd>>q<<qq>:=&&&&&&&&&&&&&&&&&&&q4fggf6ddddddeXoo",
"X$X$X$X#-eee-ee . aeeeeeee-e-ee-eeeeeeee-eee-ee . aeeeeeee-eeoXX",
"XX$X$X$X$X$X$$$ . #X$X$XXX$X$$oXXX$X$X$X$X$X$$$ . #X$X$XXX$$oXXX",
"rrrrrrrrrrrrrrr . rrrrrrrrrrrrrrrrrrrrrrrrrrrrr . rrrrrrrrrrrrrr"
};
