/* XPM */
static char *cropped_27_png[] = {
/* columns rows colors chars-per-pixel */
"64 64 28 1 ",
"  c gray33",
". c #20B4B4",
"X c #008C8C",
"o c #009898",
"O c #00A4A4",
"+ c #005858",
"@ c #008484",
"# c #007C7C",
"$ c #74C8C8",
"% c #007878",
"& c #007070",
"* c #9CDCDC",
"= c #006060",
"- c #006464",
"; c #007474",
": c #20B0B0",
"> c #006C6C",
", c #400000",
"< c #585400",
"1 c #848400",
"2 c #004040",
"3 c #7C7C7C",
"4 c #48C0C0",
"5 c gray22",
"6 c #646464",
"7 c black",
"8 c #484848",
"9 c white",
/* pixels */
"                                                                ",
".XXXXXoooooOOOoOOOoOoOoOooooooooooooXXXXXXXXXXXXXXXXXXXXXXXXXXX+",
".@XXOO@XooooOoOoOoOOOOOoOoOoOoOooooooooooooooooXXXXXXXXXXXOO@XX+",
".#@O$O%&XXooXooOoOoOoOOOOOOOoOoOoOoOoOoooooooooooooooooooO*.%&X+",
".##O.@%&XXXXoXooooooOoOoOOOOOOOOOOOoOoOoOoOoOooooooooooooO.@%&o+",
".%##@%&X@@XXXXXoXoXooooOoOoOOOOOOOOOOOOOOOoOoOoOoOoOoooooo@%&XX+",
".%%%##@@@@@@+XXX+XoX+ooo+oOo+oOO+OOO+OOO+OOO+OOo+oOo+oOoOoooooo+",
".%%%%##@@@@@@@XXXXXoXoXooooooOoOoOOOOOOOOOOOOOOOOOOOOOoOoOoOoOo+",
".%%%%%%#@#@=================---------&&&&&&&&&&&&&&&&$OOOOOoOoO+",
".;%%%%%%###=++++++++=============-----------&&&&&&&&:$OOOOOOOOO+",
".;;%XX@%%%#=+#@@X@X@XXXXXXoXoXoXooooooOoOoOoOOOOOOOO.$OOOO:O@XO+",
":&;X.O%&%%%=+##@@X@X@XXXXXXXXoXoXooooooooOoOoOoOOOOO.$OOO:*.%&O+",
":&&#O@%->%%=+%##@@@@X@X@XXXXXXXXoXoXooooooooooOoOoOO.$OOO:.@%&O+",
":&&&#%-->%%++#%##@#@@X@X@XXXXXXXXoXoXooooooooooooOoO.$OOOo@%&XO+",
":&&>--->%;%++%%###@#@@X@X@X@XXXXXXXXoXoXoooooooooooo.$OoOOOOOOO+",
":&&&>>>;&;;++%%%=,,,,,,,,,,,,,,,,,,,,,,,,,,,,,,,,-oo.$oOoOoOOOO+",
":>&&&&&;;;;++%%%,<111111111111111111111111111111<,oo.$ooooOoOoO+",
":>>&&&&&;;;+2%%%,1<,,,,,,,,,,,,,,,,,,,,,,,,,,,,<1,oo.$oooooooOo+",
"O>>;##%&&;;+2;%;,1,,3,,,3,3,3,333,3,3,3,3,,33,3,1,oo.$oooXOO@Xo+",
"O>>#o@%-&&;+2;;%,1,3,3,3,,3,3,,3,,3,3,333,3,,,3,1,Xo.$oooO*O%&o+",
"O>&%@@&+-&&+2;;;,1,3,3,3,,3,3,,3,,3,3,333,3,,,3,1,oX.$oooOO@%&o+",
"O>>->&-+-&&+2;&;,1,333,3,,333,,3,,3,3,3,3,3,3,,,1,XX.$Xooo@%&Xo+",
"O->++++--&&+2&;;,1,3,3,,3,3,3,,3,,,33,3,3,,33,3,1,XX.$oXoXoXooo+",
"O=->----&&&22&&;,1,,,,,,,,,,,,,,,,,,,,,,,,,,,,,,1,XX.$XXXoXoooo+",
"O==->&>>&>&22&&&,1,,,,,,,,,,,,,,,,,,,,,,,,,,,,,,1,XX.$XXXXXXoXo+",
"O+=-->>>>&&22&&&,1,,,,,,,,,,,,,,,,,,,,,,,,,,,,,,1,XX.$XXXXXXXoX+",
"O+=>>%;>>>&22&&&,1,,,        ,   ,  ,     ,   ,,1,X@:$XXXXOo@XX+",
"O++>@#>>>>>22&&&,1,,,,,,,,,,,,,,,,,,,,,,,,,,,,,,1,@X:$XXXO*O%&X+",
"O=+-#%>+>>&22>&&,1,,   ,   ,     , ,          ,,1,X@:4X@XO.@%&X+",
"O==-==++->>22&&&,1,,,,,,,,,,,,,,,,,,,,,,,,,,,,,,1,@@:4@X@o@%&XX+",
"O-=+++++>->22>&&,1,,     ,     , ,   ,    ,   ,,1,@@:4X@X@X@XXX+",
"O>==+++=->>22>>&,1,,,,,,,,,,,,,,,,,,,,,,,,,,,,,,1,#@:4@@@X@X@XX+",
"o-==++=+=>>22>>>,1,,  ,      ,,     ,    ,    ,,1,@#:4@@@@X@X@X+",
"o>-==++==->22>>>,1,,,,,,,,,,,,,,,,,,,,,,,,,,,,,,1,#@:4#@@@@@@X@+",
"o&>===++==-22->>,1,,    ,    ,  , ,        ,  ,,1,##:4@#@Xoo@XX+",
"o&-=;>-++==22>>>,1,,,,,,,,,,,,,,,,,,,,,,,,,,,,,,1,##O.#@#o$O%&@+",
"o>>&>>=+++=22->-,1,,  ,    ,       ,     ,    ,,1,##O.##@oO@%&@+",
"o>>-=-+++++22>->,1,,,,,,,,,,,,,,,,,,,,,,,,,,,,,,1,%#O.###@#%&X@+",
"X>>+++++++=22---,1,,,,,,,,,,,,,,,,,,,,,,,,,,,,,,1,#%O.####@#@##+",
"X&>>--==+++22=--,1,,,,,,56665,,,,,,,,,,,,,,,,,,,1,%#O.#######@#+",
"X&>>>-===++22==-,1,,,,,5667765,,,,            ,,1,%%O:########@+",
"X&&>>>-=+=+22==-,1,,,,,6767666,,,,,,,,,,,,,,,,,,1,%%O:%###%####+",
"X&&;#%===++22+==,1,,,,,6777776,,,,            ,,1,%%O:%%#XOO@%#+",
"X;&#@#>===+22++=,1,,,,,6667676,,,,,,,,,,,,,,,,,,1,%%O:%#%O.O%&#+",
"X;&%#%>+-==22+=+,1,,,,,5677665,,,,,85,,,,58,,,,,1,%%o:%%%oO@%&#+",
"X;;>>>++-==22++=,1,,,,,,56665,,,,,,8   858 88  ,1,%%o:%%%%@%&%%+",
"X;;--++=--=22+++,1,,,,,,,,,,,,,,,,,,,,,,,,,,,,,,1,%%o:%%%%%%#%%+",
"X;;&&>>>--=22+++,1,,,,,,,,,,,,,,,,,,,,,,,,,,,,,,1,;%oO%%%%%%%#%+",
"X;;;&>>->--22+++,1<,,,,,,,,,,,,,,,,,,,,,,,,,,,,<1,;;oO%%%%%%%%%+",
"X;;;&&>>->-22=++,<111111111111111111111111111111<,;;XO%%%%%%%%%+",
"X;;;#%%>>--22==+2,,,,,,,,,,,,,,,,,,,,,,,,,,,,,,,,=;;XO%;%%XX@%%+",
"X;;#o#%&>>-22=+=+++=+==-->->>>>&>&&&&&&&&&&;&;&;&;;;@O;%;X.O%&%+",
"X;;%#%>=>>>22==+++++=+==-->->>>>&>&&&&&&&&&&&&;&;;;;@o;;%XO@;&%+",
"X%;>>>++>>-2+-==++++=++=--->->>>>&>&&&&&&&&&&;&;&;&;@o;;;%@%&&%+",
"X%;-=++=>>&2+;;;&>----->>&&;;%%%%%%%%%%%%%%%%%####@@@o;;;;%&&%%+",
"X%;;;;&&>>>2;;&&&------->>&&&&;;;;#@@@@@@@@@@@@@@Xoooo;;;;;%%%%+",
"X%;;;;&&&->->---=+++++=+===--->>>>>>&>&&&&&&&&&&&&;&;;;;;;;;;%%+",
"X%;;;;&&&>>>2---2=++2++=2==-2-->2>>>2&>&2&&&2&&&2;&;2;&;;;;;;;%+",
"X%%&##&&&>>->>---==+++++====---->->>>>&>&&&&&&&&&&&&;&;;;;@@%;;+",
"X%%#OX&=&&>>>>---=+=++++=+===---->>>>>>&&&&&&&&&&&&;&;&;&@:o%&;+",
"X%%#X;+=&&>>>->---=+=+++++=+==-->->->>>>&>&&&&&&&&&&&&;&;@o@;&;+",
"X%%&+++=&&&>>>----==+++++++=+=--->->>>>>>&&&&&&&&&&&&;&;&;;;&&;+",
"X%%====&&&&>>>>----==+++++=+=+=--->->->>>>&>&&&&&&&&&&&&;&&&&;;+",
"6666666666666666666666666666666666666666666666666666666666666666"
};
