/* XPM */
static char *cropped_29_png[] = {
/* columns rows colors chars-per-pixel */
"64 64 21 1 ",
"  c gray33",
". c #20B4B4",
"X c #008C8C",
"o c #009898",
"O c #00A4A4",
"+ c #005858",
"@ c #008484",
"# c #007C7C",
"$ c #74C8C8",
"% c #007878",
"& c #007070",
"* c #9CDCDC",
"= c #006060",
"- c #006464",
"; c #007474",
": c #20B0B0",
"> c #006C6C",
", c #004040",
"< c #48C0C0",
"1 c #646464",
"2 c white",
/* pixels */
"                                                                ",
".XXXXXoooooOOOoOOOoOoOoOooooooooooooXXXXXXXXXXXXXXXXXXXXXXXXXXX+",
".@XXOO@XooooOoOoOoOOOOOoOoOoOoOooooooooooooooooXXXXXXXXXXXOO@XX+",
".#@O$O%&XXooXooOoOoOoOOOOOOOoOoOoOoOoOoooooooooooooooooooO*.%&X+",
".##O.@%&XXXXoXooooooOoOoOOOOOOOOOOOoOoOoOoOoOooooooooooooO.@%&o+",
".%##@%&X@@XXXXXoXoXooooOoOoOOOOOOOOOOOOOOOoOoOoOoOoOoooooo@%&XX+",
".%%%##@@@@@@+XXX+XoX+ooo+oOo+oOO+OOO+OOO+OOO+OOo+oOo+oOoOoooooo+",
".%%%%##@@@@@@@XXXXXoXoXooooooOoOoOOOOOOOOOOOOOOOOOOOOOoOoOoOoOo+",
".%%%%%%#@#@=================---------&&&&&&&&&&&&&&&&$OOOOOoOoO+",
".;%%%%%%###=++++++++=============-----------&&&&&&&&:$OOOOOOOOO+",
".;;%XX@%%%#=+#@@X@X@XXXXXXoXoXoXooooooOoOoOoOOOOOOOO.$OOOO:O@XO+",
":&;X.O%&%%%=+##@@X@X@XXXXXXXXoXoXooooooooOoOoOoOOOOO.$OOO:*.%&O+",
":&&#O@%->%%=+%##@@@@X@X@XXXXXXXXoXoXooooooooooOoOoOO.$OOO:.@%&O+",
":&&&#%-->%%++#%##@#@@X@X@XXXXXXXXoXoXooooooooooooOoO.$OOOo@%&XO+",
":&&>--->%;%++%%###@#@@X@X@X@XXXXXXXXoXoXoooooooooooo.$OoOOOOOOO+",
":&&&>>>;&;;++%%%%#%##@@@@X@X@XXXXXXXXXXoXooooooooooo.$oOoOoOOOO+",
":>&&&&&;;;;++%%%%%#%##@#@@X@X@X@XXXXXXXXoXoXoooooooo.$ooooOoOoO+",
":>>&&&&&;;;+,%%%%%%###%@#@@@@X@X@XXXXXXXXXXoXoXooooo.$oooooooOo+",
"O>>;##%&&;;+,;%;%%%%#%####@#@@X@X@X@XXXXXXXXXXoXoXoo.$oooXOO@Xo+",
"O>>#o@%-&&;+,;;%;%;%%#%#%##@#@@@@X@X@XXXXXXXXXXoXoXo.$oooO*O%&o+",
"O>&%@@&+-&&+,;;;%;%%%%%%####@#@@@@X@X@X@XXXXXXXXXXoX.$oooOO@%&o+",
"O>>->&-+-&&+,;&;;%;%;%%%%#%#%##@#@@@@X@X@XXXXXXXXXXX.$Xooo@%&Xo+",
"O->++++--&&+,&;;;;%;%%%%%%######@#@@@@X@X@X@XXXXXXXX.$oXoXoXooo+",
"O=->----&&&,,&&;&;;;;%;%%%%#%#%#%@#@@@@@@X@X@XXXXXXX.$XXXoXoooo+",
"O==->&>>&>&,,&&&;;;;;;%%%%%%#%######@#@@@@X@X@X@XXXX.$XXXXXXoXo+",
"O+=-->>>>&&,,&&&&;&;;;;%;%%%%#%#%#%##@#@@@@@@X@X@XXX.$XXXXXXXoX+",
"O+=>>%;>>>&,,&&&&&;;;;;;%;%%%%%%######@#@#@@@@X@X@X@:$XXXXOo@XX+",
"O++>@#>>>>>,,&&&&&&;&;;;;%;%%%%%%#%#%####@#@@@@@@X@X:$XXXO*O%&X+",
"O=+-#%>+>>&,,>&&&&&&;;;;;;%;%%%%%%#%######@#@@@@@@X@:<X@XO.@%&X+",
"O==-==++->>,,&&&&&&&&;&;;;;%;%%%%%%#%#%####@#@#@@@@@:<@X@o@%&XX+",
"O-=+++++>->,,>&&&&&&&&;&;;;;%;%%%%%%%%#%#%####@#@@@@:<X@X@X@XXX+",
"O>==+++=->>,,>>&&&&&&&&;&;;;;;;%;%%%%%%#%######@#@#@:<@@@X@X@XX+",
"o-==++=+=>>,,>>>&&&&&&&&;&;;;;;;%%%%%%%%#%#%####@#@#:<@@@@X@X@X+",
"o>-==++==->,,>>>>&&&&&&&&;&;;;;;;%;%;%%%%#%########@:<#@@@@@@X@+",
"o&>===++==-,,->>>>&&&&&&&&;&;;;;;;%;%%%%%%%%#%######:<@#@Xoo@XX+",
"o&-=;>-++==,,>>>>>>&&&&&&&&;&;&;;;;%;%;%%%%%%#%#%###O.#@#o$O%&@+",
"o>>&>>=+++=,,->->>&>&&&&&&&&;&;;;;;;%;%%%%%%%%#%####O.##@oO@%&@+",
"o>>-=-+++++,,>->>>>&>&&&&&&&&;&;&;;;;%;%;%%%%%%#%#%#O.###@#%&X@+",
"X>>+++++++=,,--->>>>&>&&&&&&&&&&;;;;;;%;%%%%%%%%%%#%O.####@#@##+",
"X&>>--==+++,,=--->>>>&&&&&&&&&&;&;&;;;;%;%;%%%%%%#%#O.#######@#+",
"X&>>>-===++,,==--->>>>&>&&&&&&&&&&;;;;;;;;%%%%%%%%%%O:########@+",
"X&&>>>-=+=+,,==-->->>>>&&&&&&&&&&;&;&;&;;;;%;%%%%%%%O:%###%####+",
"X&&;#%===++,,+==-->->>>>&>&&&&&&&&&&;;;;;;;;%;%%%%%%O:%%#XOO@%#+",
"X;&#@#>===+,,++==-->>>>>>&&&&&&&&&&;&;&;&;;;;%;%%%%%O:%#%O.O%&#+",
"X;&%#%>+-==,,+=+==-->->>>>&>&&&&&&&&&&;;;;;;;;%;%%%%o:%%%oO@%&#+",
"X;;>>>++-==,,++=+=--->>>>>>&&&&&&&&&&;&;&;&;;;;%;%%%o:%%%%@%&%%+",
"X;;--++=--=,,+++===--->->>>>&>&&&&&&&&&&;&;;;;;;%;%%o:%%%%%%#%%+",
"X;;&&>>>--=,,++++===--->>>>>>&&&&&&&&&&;&;&;&;;;;%;%oO%%%%%%%#%+",
"X;;;&>>->--,,+++++===--->>>>>>&>&&&&&&&&&&;&;;;;;;;;oO%%%%%%%%%+",
"X;;;&&>>->-,,=+++++==---->>>>>>&&&&&&&&&&;&;&;&;;;;;XO%%%%%%%%%+",
"X;;;#%%>>--,,==+++=+==-->->>>>>>&&&&&&&&&&&&;&;;;;;;XO%;%%XX@%%+",
"X;;#o#%&>>-,,=+=+++=+==-->->>>>&>&&&&&&&&&&;&;&;&;;;@O;%;X.O%&%+",
"X;;%#%>=>>>,,==+++++=+==-->->>>>&>&&&&&&&&&&&&;&;;;;@o;;%XO@;&%+",
"X%;>>>++>>-,+-==++++=++=--->->>>>&>&&&&&&&&&&;&;&;&;@o;;;%@%&&%+",
"X%;-=++=>>&,+;;;&>----->>&&;;%%%%%%%%%%%%%%%%%####@@@o;;;;%&&%%+",
"X%;;;;&&>>>,;;&&&------->>&&&&;;;;#@@@@@@@@@@@@@@Xoooo;;;;;%%%%+",
"X%;;;;&&&->->---=+++++=+===--->>>>>>&>&&&&&&&&&&&&;&;;;;;;;;;%%+",
"X%;;;;&&&>>>,---,=++,++=,==-,-->,>>>,&>&,&&&,&&&,;&;,;&;;;;;;;%+",
"X%%&##&&&>>->>---==+++++====---->->>>>&>&&&&&&&&&&&&;&;;;;@@%;;+",
"X%%#OX&=&&>>>>---=+=++++=+===---->>>>>>&&&&&&&&&&&&;&;&;&@:o%&;+",
"X%%#X;+=&&>>>->---=+=+++++=+==-->->->>>>&>&&&&&&&&&&&&;&;@o@;&;+",
"X%%&+++=&&&>>>----==+++++++=+=--->->>>>>>&&&&&&&&&&&&;&;&;;;&&;+",
"X%%====&&&&>>>>----==+++++=+=+=--->->->>>>&>&&&&&&&&&&&&;&&&&;;+",
"1111111111111111111111111111111111111111111111111111111111111111"
};
