/* XPM */
static char *cropped_35_png[] = {
/* columns rows colors chars-per-pixel */
"64 64 30 1 ",
"  c gray22",
". c #202020",
"X c #2C2C2C",
"o c #C80000",
"O c #A40000",
"+ c #880000",
"@ c #BC0000",
"# c #B00000",
"$ c #980000",
"% c #700000",
"& c #4C0000",
"* c #640000",
"= c #7C0000",
"- c #580000",
"; c #404000",
": c #585400",
"> c #848400",
", c #706C00",
"< c #9C9C00",
"1 c #483818",
"2 c #CCC400",
"3 c #484848",
"4 c #403018",
"5 c #400000",
"6 c #382C14",
"7 c #28200C",
"8 c black",
"9 c gray11",
"0 c #543C1C",
"q c white",
/* pixels */
"                                                                ",
" . XXXXX XXXXXX X.XXXXXXX      XXXXXXXXX       XXXX...XX  XXXXX.",
".ooooOOOOOOO+XX @@@@####OOOO$$$$$$$$+X. oooo#####OOOOOOO$$$$$$+X",
"Xo#$$@%+@%#+&.X @O%O%O%O*O=O=O*O*O#+-.X.o+#$#$$#-#*#$#%$+*#=#+*.",
"X#+*+%+=-+%-&.X @O%%+%-++-=++-=+-+=-&.X o++*&+%-%+*%++%+*%+&+-&.",
"X#*++-=++-+&&.X #%O+%+-+%+-+-%*+-=*-&.XXo-+&%+&+-+*+%+&+=*+*+-&.",
"X#+*%=*+-%+-&.X OO%+%%=+-;:>>>>,:,>>>>>;O-+*+%&+--++-+%++*+&+%&.",
"X=*++-+=-=-&&.XX##%+-+-::;;,>>,:<<<<<<<,::+&%+*%-%*+%+&+*%+*+-&.",
"X=+-%&-*&-%-&.. ==--&;;::;;;,,;>>>>>>;;;::;;--&%&-&%&-&%&&-%-%&.",
"X*&&&&&&&&&&&..X*&&;::;;;;<;;,;,,,,,<><;;;;::;&&&&&-&&&&&&&-&&&.",
"XX............. X.;;::><<<<>;1:::::,:>>:<<;::;;.................",
" ....XXXX.....X.X;;;;;<<22;;11111111:;;22,<;;;;;3  XX... . XXX .",
"###OOOOOOOOOOOO+;::;><<>;;;>41;;;;;;>>;;;>:<<;::;55*+X. @@######",
"$%%$=*$*=%$&$%+::;:;>22;::,;4666666:;;,::;22<;:;::55&.X.@#*$%$%$",
"%+%+*%%&+%&%++;::;;;,;;;;>>;6777777::;>>;;;;,;;;::;5&.X @$*+%*+=",
"-++%=&+*%%=&+;;;;;>;;;:;;;;;67788886;;;;;;:;;;>;;;;;5..X#*+++*+*",
"+%%+%**%*+=&::;>>><<;;>>;:;68899;99999::;>>;;<;>;;;::8.X#$*+*+=*",
"-+&+-%*=&+&%::;><<;.;;;;;;68899;,,99996;;;;;;.<;<<;::88.$*++&+*%",
"-$&-&*-=-=-...;,<;<:;::;;88899;,,,<99...;;::;:<<;<;...8.$+*-&-=-",
"&-&&&&&&&&&;.<><,:;.;;:;88899;,,,,,<.....::;;.;:<;<<.;88+&&&&&&&",
"..........::;>><;,<;:;;88899;,,,,,;8......;;:;<<>;:>;::888888...",
"  X..X . .::;;<<;:>;;:88899;,,,,,;88.......:;;>::>;;;::888.. XXX",
" @@@##OOOO;;<<<,,;;:;88899;,,,,,;88..<<.....;:;;<<;<<;;5&*$$$$+X",
" #%$O*O*O;;;<,<;,<;:;8899;,,,,,;88..<,,<....::;<<><:<;;;555+&+&.",
".#$%+=+*-:;;,><;,>;;.899;,,,,,;88..<,,,,<....;;>,,<;,;;:955+*-&.",
"X#&++-%&+::;;;;,,.;;8899;:,,,,,>;.<,,,,,,<...;;.,,;;;;::9555&-&.",
"X#$%+&+&-:;;.;;;.::;89999;:,,,,,><,,,,,,,,<..;::.;;;.;;:9555*-&.",
" #-&+&%*+:;;;<<.:::..;,.9.;:,,,,,,,,,;,,,,,<..:::.<<;;;:9595%-&.",
"X#+&---&-;;;;<:;;;;.;,,<...;:,,,,,,,;8;,,,,,<.;;;;,>;;;;9555--&.",
"X+=&&&&&&;;,,<;<<;;;,,,,<...;:,,,,,;888;,,,,,;;;<<>:<<;;9995&&&.",
"XX.......;;><<;>:;:8;,,,,<...,,,,,,,<..8;,,,;8:;:,>::>;;88888...",
"     XX.X;.,<<;,;;:.8;,,,,<.<,,,,,,,,<..8;,;88:;;:<;:;.;8899.X .",
"OOO$$$$$$:;.;>,:<>;;.8;,,,,<,,,,;,,,,,<..8;88;;;<<<;;.;:55&-*OOO",
"+$+$=#$$#::;,><;>>:;..8;,,,,,,,;8;,,,,,<..88.::;,,<;<;::95555+-+",
"+*%+=+*+%;;;><>;>;;;...8;,,,,,;88.,,,,,,,....;;;;,>;>;;;99555=%-",
"%*+=*+*=+-;.,<<,:>>;;...8;,,,;88.<,,,,,;8...;;;;<<;:;.;995955*+-",
"+%*+=+=*%-;;.;:<;><;;....8;,;88.<,,,,,;88...;;<,,<;;.;;999555*-%",
"+%*+*+*=+-,;;,<<,::;:;....8;88.<,,,,,;88...;:;:<>;<<;;,95955*%+-",
"--%=--=---;;;>><;;..;;;....88.<,,,,,;88...;::..;;;,>;;;95955*++-",
"&&&&&&&&&&&;.;<:;;;;;;::.....,,,,,,;88...;:;;;;;;:<;.;999995&&&&",
"...........;;.;;.<:;<<;;;....8;,,,;88...;;;>>;:<.;;.;;8888899...",
" X .X..XX...;;;;;;<<<>;;;,X...8;,;88..;:;;;><><;;;;;;888999. . .",
".@@#####OOOO5::;;;;<<;,<;:;>:..8;88;,>>:;:,;>;;;;;::5955555$$$+X",
" @+%%+&++*=+5;:;;;:;<<<<>;;;>>>>;>>>>>;;>,<>;;:;;;:;5955555-%+&.",
"X#+&+%&+%=*+&5;;;;>:;<<<:><;:,>;<<<<<;:,;>>;;:>;;;;8555555=+&%&.",
"X#%&+&%-&+&+%55;;;;;:;;<<<<;;,;>>>>>>;,<>;;,:;;;;;59555555-%&+&.",
".#+%+%&+%*=+*555;,;.>;;;;<<:;,;,,,,,,;>>;,;:>.;,;595555555-+%+&.",
" #+&%+&+&+&+&+55&;;;...:,;;;;60000000;;;,:...;;;859595555*=%&-&.",
".#+&+&%-%=*+%%%5555;:;.>>:;;16:::::::6;:>>.;:;8595555555*=-+&+&.",
" +&&&&&&&&&&&&555555;:;.;;;;6111111116;;;.;:;9999999955&&&&&&&&.",
".X..............888888;;;;;;6666666666;;;;888888888899999.......",
" . . X XXXX 33 X..999888877767777777777788888899999.XX......XX X",
"OOOOOO$$$$$$$$$$$+.99&595988777777777778895555599.@@@@###OOOOOOO",
"*+&++&=&+*#*+&+*+&.X.*55555988888888888559555559..#+&%+&+-+-+&+-",
"+**+*+&=*&+&*&%&%&.XX#55595959555955595555555559. @&+&+-+-%+-+%&",
"+*&*+&=&*+*&+%&=*&.XX$**-555555555555555555555&.. @&+--++%-%-&-%",
"*=&=&&+&+*+&*-&+&&.X.$+&-+&&&&555555555555&-=&&.X @+&&+%--+-+&-+",
"&+*+&+&%+&+*&%+*%&.X #&++&+&-%&*&&&&&*&&%-&%-&&.XX@&+%+-+%--&+-+",
"&+**&==&=&*&+&+&=&.XX#&+-+&**%&=&%&&*&&%&+&+&%&..X@&+&-&+-+-&&+&",
"*=&+&&%&**+&+&-%*&.X #+&-+&+&%&+&+-&+&&+&%-%&%&..X#&&&+&+-+-+&+-",
"&&&&&&&&&&&&&&&&&&.XX+&&&&&&&&&&&&&&&&&&&&&&&&&.X +&&&&&&&&&&&&&",
"...................X X...........................XX.............",
". . ...XXXXX  .XXXX     XXX XXX XX.XXXX..X..XX... XX. XXXX...XXX",
"3333333333333333333333333333333333333333333333333333333333333333"
};
