/* XPM */
static char *cropped_58_png[] = {
/* columns rows colors chars-per-pixel */
"64 64 36 1 ",
"  c #BC7848",
". c #A86840",
"X c #6C4824",
"o c #80502C",
"O c #905C34",
"+ c #9C6038",
"@ c #D08050",
"# c #DC8854",
"$ c #B47044",
"% c #C87C4C",
"& c #885830",
"* c #A0643C",
"= c #744C28",
"- c #EC0000",
"; c #980000",
": c #C80000",
"> c #7C0000",
", c #880000",
"< c #FC4040",
"1 c #FC7C7C",
"2 c #FC5C5C",
"3 c #5C4020",
"4 c #640000",
"5 c #B00000",
"6 c #700000",
"7 c #FC0000",
"8 c #A40000",
"9 c #E00000",
"0 c #BC0000",
"q c #E88C58",
"w c #580000",
"e c #4C0000",
"r c #543C1C",
"t c #FC2020",
"y c #403018",
"u c white",
/* pixels */
"          .XXooOO++.. @#OoooooO..$%%%%%%%$O#%%%%%%%%$o@         ",
"         .XXooo&OO++.@##oooooo...$&$%%%%$O#%%%%%%%%$o@          ",
"       .XXXXooo&OO++. #*OooooO..$&oo$%%$$#%%%   %%$o.@  $       ",
"      .XXXXoo&&&OO++.$#**OooO. $&&ooo&$$O#%%  %%%$oo@        $$ ",
"    .OXXoXoo&&OO++++. O***Oo.$$&&o&o&ooO#% % %%%$XX&@      $    ",
"   .OXoooo&&OO++...$%O***.Oo$*OOo&oooo=#%%  % %$XXX@  $$$    $  ",
" ..=X&o&o+++...$$  OO***.o@$*O&&&&&o&=@%  %$%%$XXXXO    $ $ $   ",
".O=Xoo&&+....$%%%OO***..$@$*OO&&Ooo&= $%$$- %$oX&*oXO$$$$$$  $  ",
"OXX=+....$$%% $OOO**..$@  *OO&O&O&O&=$ %$ $%$o&&&*ooXO* $ $ $  .",
"X=&&.%%%%% % OOO***.$$@ $*OOOO&&&O&=+* $$$%$o&*;XooooXO$ $$$ $.O",
"&+..$%%%%%%OO****.$$$@ **OOO&OOO&O=&+OO$:$$oO*&&*oo&oXOO.$ $..&X",
".. $$* % OOoo**.$$$$@$$*OOO&OOOOO>=.+,oo$$oO.$$-O&oooXooo.$.OO=+",
"  *&&&&.$O.O%o..$ $@$**OOOOOOO&Oo=&$+OOXoO..$$-<*o&&oXXXXoOO&+..",
"**oooooo... %+oo$$@@.*OOOOO&OOO&=&+@.+O,..;X$-<1$*&&oX.OXoO+...@",
" $**oooo..$$ %+oo@@@@.OOOOO&OOOo=+   +OX.+O$-12-+$*&oXO.oO....@ ",
"    $*oo..$ $%+oo@%@@..OOOOOO&o>..   .O.+O*112-,o **oX=O......@ ",
"       &..$&  $+@ %%%@..OOOOOo>3.    .*+O*12-,,,,+$..O=......@  ",
"      .&..+O&$+o%@@%@@@.OOOOo>3O.     *O$1<-,,,,,o$o&O&&.....@ $",
"     .&....+O&.%   % %@@.OOo=3o..    $+$ @%+,,,,,4oo&OO&&...@ $ ",
"$$  .&.......o@O $%  %@@$.o>3oO.$   O.$ <%  o,,,44oo&OOO&..@  $$",
"$$ .&...O....@.OO$   %@%@.=XXoO.$  =O$@@%$$.$,,,4oo&OOOO&..@  $ ",
"$ .&.. *OO..$@OOOO$%%%@@ =XooOO.$ =O$@% $..$%o,4OO   .OO&.@ $$$$",
"..&.  *OO=.$@.OOOOO% @@.ooooo&O.&=OXO$$*.$.-$ ;4 O   .O&..@$* ..",
".&. *OOOo=O$@OOOOO&o .O+oOO&oo.=+#OXXO.$$*$..$4+O..   .&.@ $$*. ",
"&.#OOOOO=&$@.OOOOO&o$ $++++OOO=&$#OXXXO.$$. $4..&O..  ... $.**$*",
".#  OOO==.@.OOOOO&o+ @$$++++O==$$@ OX,X..$$.4+.O&o...@..$.*.***&",
"#    Oo=.%@.OOOOO&o @$$$$++O==X$@   OX,+.. o+ .&&o$$OO. .+**.*& ",
"    .==&%@.OOOOOOo+@$$$$$++O=XX   <  OX&*&X-@.+OoO56OO .Oo+**& #",
" $  +==$%#.OOOOO&o@$$$$$$$O=XO.&O    oO&&X;-$.&OoO76. .Oo==+& # ",
" $ .&=$%#.OOOOO&o+$ $$$$$+=XO.$+&O  .o&&X;5-,+OoOOOO .O&o==o.# $",
"$$ +=.%#.+OOOOO&o $$$$$$+=oO. +O+&O.OO+X;55-,OOo.O.-.OOoO&=&.   ",
"$$.=&%# $.+OOO&o+ $ $ $+=oO. +++4O&Oo>;;55-;,ooO..-8O.O&=33. .$$",
"$$+&$@   $.+OO&o$% $$$+=oO. $OOO+O4X>>89--0,,4o..-88OO=333Xo..$ ",
" .&$@     $.+&o+$%   +=oO.. +O+OO&X4;8999q$o,4O.-888O=333=oX&. $",
" && @      $.+oO.$% +=&O.. $>+O44446;89##%%$,X.  888>www=&+oX&$$",
" &$@        $OO*.$++=OO.$  $.+OO&46;99#%<%%%4O   O>>wew,&+&&oX. ",
"..@        .OOO*.+==..    $$$.+&X;;;.%%<%%%.X.   O>>3e,&&+&&&o. ",
"&@        .OOOO*+=&&      $$$$.Xw>9$.%%%%-%X&  <  >33,&&+&&&o+..",
"X        .OOOOO+=.&o$     $$$$.w>O*9$%%%%%*o     .3==,&&+&&&oO.&",
"XX      .OOOOO&o$*&=&      $$$O=w>O9$%%-%%O      &3=,+ +&&&&=O.X",
"XXX    +ooo&Ooo$$*&==&     $$*oorw>=9$%%%*eO+   .3&&5 @++&&o=&&X",
"o=&X $++ooo&&o$$$&&==o$    $*oooo6w>8+$$*&eXO+  &&+$ @#$+&&=3=&X",
"=oo&$++OOoo&+$$ *&&o==o  $. OO&o&6668O+$%.&eXO+.+.+9+#@ ++&333=X",
"o&&$++O+O+&o+$ $&&o=&=o&$. OO&O&oX,,;$$%# .&eXo+.$$+#@  $+oX3=XX",
"o&$++O+OOO++$$ *&&=oooo&. *O&o&&o&,,:;%#@% .&e&.$$ #@    +OX3XoX",
"&$++O++OOOO$$ $&&o=o&&&.% OOOO&O,O;;::7@% $ .&O$$ @@     +=3X3X&",
"$++++O+O++$$  *&o&&&&==#%*O&O&oo&o;8::t%     .+$$ #     .OXX3=+.",
"+++O++OO++$ %$&&&&o&== #*OOOOOOO&o8,:t,&$     +$ %      .+33==$$",
"+++O+++++$  %*&&&&o=3+#%.+OOO&O&&O8X,%,,  $  ++ %      .OX=3&$$+",
"+*+++O++$  @*&&&&==3+#%$..+OOOOO&&,&,  ,$$   +.% $     .+X=&$%$+",
"+*+**++$$ @*&&&&==33 @  $..+OOOOOOr+,  ,&$  +.%$   $  .O==&$%+++",
"+***+++$ @% .&&=X33&#%   $..+OOOOOr+,  &,$$+. % $$    .+=&+ % ++",
"*+*+*+$ @% $$.&&333 @     $..+OOO&o&,   ,+&. %$$$$ $ .Oo=&$%%$ +",
" +*++$ @ $$$$+&X33&#%      $..+OOoX&6.  &&+ %. .  $ $.+oo+%%   $",
" $*+$$@ $$.$$&X333 @        $..+Oo=&6.  &+.$$.$.$$$ .Ooo+ %  $ $",
"  ..$@$$$$$$.&X33&@%         $..&=Xo6O.&+. .$..$.. $.+oo+% $   $",
" ..$@$$$.$$$.&33&$%$          $.XXXow&O6. . $.$..$$+Ooo+% $   $$",
"...@$$.$$$...&33&%             &ry3ow=6+$$.....$..$+oo+$%$$$ $  ",
"..@$$$$$.*$.+X3&$ $          $&Xryyywww$.**O.O...$+Oo+$%$$ $  $ ",
"...$$..*...$+X3. $ $$$      $&rrrrrrywO**OO*O.**..+oo+%$$$$ $   ",
".&.*..$*..*.&3&$$$$$$$$  $ $&rrrrrrrr3wOO*O*.*.O$+Oo+%$$ $$$$ $$",
"==&&**.**.*.&3..$$$$$ $ $ +&3Xrrrrrr33wOOOOO***O.+o+%$$$$$$$$$$=",
"====&*.**..+3.....$$ $$ $+33=3rrrrr3333wOOO.OO*$+Oo.$$$$ $$  $$=",
"======&***.&........$  *+3&&=rrrrr333XXX&OOO***.Oo.$$$$$$$$$$$=="
};
