/* XPM */
static char *cropped_71_png[] = {
/* columns rows colors chars-per-pixel */
"64 64 15 1 ",
"  c #00001C",
". c #000064",
"X c #000070",
"o c #00007C",
"O c #000088",
"+ c #000098",
"@ c #00004C",
"# c #000058",
"$ c #000034",
"% c #00002C",
"& c #0000A8",
"* c #0000B0",
"= c #000040",
"- c #0000A4",
"; c white",
/* pixels */
"   .XoO+++++++++++++++++++++OoX.   .XoO+++++++++++++++++++++OoX.",
"   @OOOOOOOOOOOOooooOoOoOoOoOoO#   @OOOOOOOOOOOOooooOoOoOoOoOoO#",
"   @OOoOOOooOooooooooOoOoOoooOo#   @OOoOOOooOooooooooOoOoOoooOo#",
"   @ooOooOOoooXoooooOoOoOooooXo#   @ooOooOOoooXoooooOoOoOooooXo#",
"   @oOooooOooXoXOooOoooOoOoOXoX#   @oOooooOooXoXOooOoooOoOoOXoX#",
"   @ooOoooooXoXOoOoXooooXoOXoXX#   @ooOoooooXoXOoOoXooooXoOXoXX#",
"   @oooOoooXoXoXOXOXXoXoXXXXXXo#   @oooOoooXoXoXOXOXXoXoXXXXXXo#",
"   @ooXoXXXXXoXoXXXXXXoXOXXooXX#   @ooXoXXXXXoXoXXXXXXoXOXXooXX#",
"   @X.o.XXXX.XoXX.XoXo.XXX.XX.X#   @X.o.XXXX.XoXX.XoXo.XXX.XX.X#",
"   @X#.X.#X.X.X..X..X.XXX.X#.X.#   @X#.X.#X.X.X..X..X.XXX.X#.X.#",
"   @###.#.#X#X.#X.#.#.#.#X#.#X.#   @###.#.#X#X.#X.#.#.#.#X#.#X.#",
"   @.#.#...#.##X...#.#.#.#.#.###   @.#.#...#.##X...#.#.#.#.#.###",
"   $$$%                     %$$$   $$$%                     %$$$",
"                                                                ",
"                                                                ",
"                                                                ",
"OOO++OO+++&&&&&&&&&&&&++++OOOOOO++OOOOO+++&&&&&&&&&&&&++++OO++OO",
"ooOooOOoooXoooooOoOoOooooXooOooOOoooooOooOOoooXoooooOoOoOooooXoX",
"oOooooOooXoXOooOoooOoOoOXooOooooOooXoOooooOooXoXOooOoooOoOoOXoXX",
"ooOoooooXoXOoOoXooooooXoXOoOoXoooooOoXooooooooXOoOoXooooXoOXoXXX",
"oooOoooXoXoXOXOXXoXooXoXoXOXOXXoXoOXOXXoXooXoooXOXOXXoXoXXXXXXoX",
"                                                                ",
"                                                                ",
"@@@@@@@@@@@@@@@@@@@@@@@*+++==@@&-+-+&---&&&*@@@@@@@@@@@@@@@@@@@@",
"@@@@@@@@@@@@@@@@@@@@@@@-OOO =@@-OOOOOOO+OO++@@@@@@@@@@@@@@@@@@@@",
"@@@@@@@@@@@@@@@@@@@@@@@-OO+ =@@-OOOOOOOOOOO+@@@@@@@@@@@@@@@@@@@@",
"@@@@@@@@@@@@@@@@@@@@@@@-OOO =@@&++OoooOooooo@@@@@@@@@@@@@@@@@@@@",
"@@@@@@@@@@@@@@@@@@@@@@@-OOO =@@&OOOo       =@@@@@@@@@@@@@@@@@@@@",
"@@@@@@@@@@@@@@@@@@@@@@@-OOO =@@-OOOo========@@@@@@@@@@@@@@@@@@@@",
"@@@@@@@@@@@@@@@@@@@@@@@-OOO =@@-OOOO@@@@@@@@@@@@@@@@@@@@@@@@@@@@",
"@@@@@@@@@@@@@@@@@@@@@@@-OO+--&*-+O+o&------+==@@@@@@@@@@@@@@@@@@",
"@@@@@@@@@@@@@@@@@@@@@@@-OOOO+O++OOOOOOOOOOOO =@@@@@@@@@@@@@@@@@@",
"@@@@@@@@@@@@@@@@@@@@@@@-O+++OO++OOOOOOOOOO++ =@@@@@@@@@@@@@@@@@@",
"@@@@@@@@@@@@@@@@@@@@@@@+oOoOoooOOOOXXXoXOO+O =@@@@@@@@@@@@@@@@@@",
"@@@@@@@@@@@@@@@@@@@@@@=        oOOOo    -O++ =@@@@@@@@@@@@@@@@@@",
"@@@@@@@@@@@@@@@@@@@@@@@========oOOOo ===-O++ =@@@@@@@@@@@@@@@@@@",
"@@@@@@@@@@@@@@@@@@@@@@@@@@@@@@@oOOOo =@@-+OO =@@@@@@@@@@@@@@@@@@",
"@@@@@@@@@@@@@@@@@@@@@@@&&&&&&&&oO++o =@@&OOO =@@@@@@@@@@@@@@@@@@",
"@@@@@@@@@@@@@@@@@@@@@@@+OOOO+OOOOOOo =@@&OOO =@@@@@@@@@@@@@@@@@@",
"@@@@@@@@@@@@@@@@@@@@@@@++OO+OOOOOOOo =@@&+OO =@@@@@@@@@@@@@@@@@@",
"@@@@@@@@@@@@@@@@@@@@@@@OoooooooXoXoX =@@*++O =@@@@@@@@@@@@@@@@@@",
"@@@@@@@@@@@@@@@@@@@@@@@=             =@@     =@@@@@@@@@@@@@@@@@@",
"@@@@@@@@@@@@@@@@@@@@@@@@@@@@@@@@@@@@@@@@======@@@@@@@@@@@@@@@@@@",
"OOO++OO+++&&&&&&&&&&&&&&&&&&&&&&++&&&&&&++&++&&&&--&&&++++OO++OO",
"ooOooOOoooXoooooOoOoOOoooXoooooOoOoooooOoOOoOooXOoOooOoOoOooooXo",
"oOooooOooXoXOooOoooOoOooXoXOooOoooXOooOoooooooXOXOooOoooOoOoOXoX",
"ooOoooooXoXOoOoXoooooooXoXOoOoXoooOoOoXooooooooXOoOoXooooXoOXoXX",
"oooOoooXoXoXOXOXXoXoooXoXoXOXOXXoXXOXOXXoXXoXoooXOXOXXoXoXXXXXXo",
"                                                                ",
"                                                                ",
"                                                                ",
"+++++++++++OoX.   .XoO+++++++++++++++++++++OoX.   .XoO++++++++++",
"oooOoOoOoOoOoO#   @OOOOOOOOOOOOooooOoOoOoOoOoO#   @OOOOOOOOOOooo",
"ooooOoOoOoooOo#   @OOoOOOooOooooooooOoOoOoooOo#   @OOoOOOooooooo",
"oooOoOoOooooXo#   @ooOooOOoooXoooooOoOoOooooXo#   @ooOooOOoXoooo",
"ooOoooOoOoOXoX#   @oOooooOooXoXOooOoooOoOoOXoX#   @oOooooOooXOoo",
"OoXooooXoOXoXX#   @ooOoooooXoXOoOoXooooXoOXoXX#   @ooOoooooXOoOO",
"XOXXoXoXXXXXXo#   @oooOoooXoXoXOXOXXoXoXXXXXXo#   @oooOoooXoXOXX",
"XXXXXoXOXXooXX#   @ooXoXXXXXoXoXXXXXXoXOXXooXX#   @ooXoXXXXXoXXX",
".XoXo.XXX.XX.X#   @X.o.XXXX.XoXX.XoXo.XXX.XX.X#   @X.o.XXXXoXX..",
"X..X.XXX.X#.X.#   @X#.X.#X.X.X..X..X.XXX.X#.X.#   @X#.X.#X.X..XX",
".#.#.#.#X#.#X.#   @###.#.#X#X.#X.#.#.#.#X#.#X.#   @###.#.#X.#X..",
"..#.#.#.#.#.###   @.#.#...#.##X...#.#.#.#.#.###   @.#.#...##X...",
"           %$$$   $$$%                     %$$$   $$$%         $"
};
