/* XPM */
static char *cropped_51_png[] = {
/* columns rows colors chars-per-pixel */
"64 64 18 1 ",
"  c black",
". c #2C2C2C",
"X c #202020",
"o c #7C7C7C",
"O c #848400",
"+ c #706C00",
"@ c #484848",
"# c gray22",
"$ c gray44",
"% c #646464",
"& c #585400",
"* c #404000",
"= c gray33",
"- c #9C9C00",
"; c gray55",
": c #4C4C4C",
"> c gray36",
", c white",
/* pixels */
"                                                                ",
"..........XoOOOOOoooooo+++o  @@oooooOOO@@#. XXXXXXXXXX..........",
"..........Xo$++++#@OO$%%OO@  @%%@O#O&&&*..   @&&&&=====XXXXXXXXX",
"@@@@@@@@ .Xo$+++*#OO&%%%*+#  #o=@#O#***.#.   &O-&*@=%OOO#=OO====",
"$%+==@@@ .Xo$&&**#O&@@#==&.  #%@=@@@#**.@.   &-+*##=oO--X#OO*#$$",
"%@++.@#@ .Xo%&**@##@#&==@*.  X@O&@%=#*.@..   &-*#@=-O#&&X#&**X@#",
"=#*.@@@@ XXo$&**#@###&@=@@.  X#&*+@=%@##.X   *&*##OOO#*&X@#X%%O%",
"=o#%@%@.  Xo$@###@#$#*#%@%.  X#@@=@@=@##X    **#@@#O##**X@%@o=&o",
"#@@@%@XX  Xo%==#=O##@#@@@@.  X.##..XX        ##@#=@=@=#X=%@o%%%=",
"o@%@@.XX  Xo;@%=#O+==*@=%%.  XX              #==@&#@%@#%==%$o@o@",
"@@@@.X    Xoo===#O&@#*=%=@.   X              #=#&X@@-#@@%@##@=@@",
"..XXX     X@o=##O+&=@=@@@=#   XXXX##@@@oo*   @=@=#=#& ..#XXX####",
"          .@o$@#@&@@@%@%&@.   X#@--ooo$$oO*  .@@##.X*           ",
"          .@@$@%@%@=%=%=##.    @-O&@=@@=&@*                     ",
"          .X@$%@@#@%=@@#*..   X@O*#%@-%@&.*                     ",
".X        .X@%@@#O&@=%#@*.@X  X@-*#=O-#@*.* XX.... XXXXXXXXXXXXX",
"=======##  .X%%*@&*@@===%#..  X--#%%--=@*.  X-++#.X.#===========",
"$O+ooO&@@  .X@%*###@=@%=@@@X  X-#@#@&*=%@.   ++*# X#%OOOo+@=OOOo",
"O+*++&*.@  .X@###@%@@.@@=@.X  X#@%@-###...   &*.# X#OOO#-&#@O&*@",
"+*@+&**.@  X.X##@@#@=@@.@.X   X@@@@..XX     #&*@. X#OO##&&##O&*@",
"*@@+&**..  X.X#..              ..X          #@*@. X#@#@#&##@O&*#",
"@%=+*..%.  X.X                  .           @@@@. X@=%@%@#%=@&*@",
"%@##.@@@.   ..X         XXXXXXX@@#&&&&&#.  #%o@%# X@%=-#@%=@%#=#",
"@O&#@%o#X   @OO+&====# X#&OOO+$;;;OOOO+&*  #o%o@@ X##@%@%#-##%=@",
"@&*@@=@#X   O++&##=## .X&O+@#@@#@#&#&*&**  @o@@%- X-@#@#--#@=#@#",
"#*@o%@=.    +&*###### .X#;##&#O@###@*#&**  @-@@@& X&*@#-+***@@.@",
"#####.X     +*##=*&*# XX#;-@#O*#OO@#*@*#*  @+@@@* X*  X****XX...",
".XX         +*#==#**# XX#;O@O&##O*#@####*  @@@@o* X            X",
"         XXX;##@*@**#  X#;+#O*#@#@#=+*%#*  -;@o@. X             ",
"X#===#@@@%X ;#=@*@###* X#;+@&*#==#=#+*=.*  +;%%@. X             ",
"#@%++%%%@@# ;@$@*@@##* X#;@O&*##@%#@+*@.* *&o@@+. X*&&&++**XXXX.",
"#=++*#@@%@X ;=%=##%=#* X##O&*@#=%=##+*#.*  &oo+&. X@&*&&&+++*# .",
"#+&*#@%++%# ;%$=@%=%#*  .#&*##@#@#%#+*@X   &o@+*. X#@@&&*****# .",
"#+&@=@=+*@# o$%%@@=%#*  .@;@OO&@==@#+*#X  *@$%+*. Xo%@&*@@*#@# X",
"#%@@%%=+*@. oo:=#%%=#*  .@;%O**##%@@&*#X  &@$@*** X$@%&*=%%#%# X",
"#@$%=@+&*@. oo==O:=##*  X@$%**#%=@#+&##   X@$@*** X%%@&*#=##=. X",
"#o$o%@***%. $o$%+@=%#** X.=o*##@=@*###@   X#@#*** X@==&*@#%@#.  ",
"#o$=@#**@@. =o$=@:%@#**  .@%##==%@##@@.   X.  **  X#.X........  ",
"#o$%+*@@%#. #o@$==:%#.*  .X@@@@..X *X.X   X.XX   XX             ",
"#o$@@#@+&@. #o#%$+=%#.*                   XXXXXXXXXXXX          ",
"#o++#@+&*@. .;%$=@@@#.*          XXX..###@@#####****########## .",
"#++*@#&**#. Xo:=#*@##.*   #&&&&&&&*##==========OOO+*%%-+%O+*%# .",
"#+*###@**#  Xo$=%*=@#.*   *OOOOOOOO&@%=%#%@%%%O+***==-+%%+++*# X",
"#+*#@@@%@.  Xo%%=@%@#.*   *O+++++++*@%=@%O&#@#+*@#OO+#=%+&+*#. X",
"#+*@%@%@@.  Xo==%%=%#.*    ++&&&&&&**@%=%&&@@#%#@O++#=%=@@+@@.  ",
"X*#$@oo@#.  Xo*=%>@@#.     @@@&*&****@=%=@##%##@O####==#%@+@=.  ",
"X@@$%#=o.   X=@@@@@##.     %o%&****@=%==@%@##OO#@#@@@-+=@=+@%.  ",
"X##@#..@.   X##@@%@@#.     =o$*@=@@##@&@==%=O==@@=%#=+*@%=@@=.  ",
"X  ......  XX#######..     @o$@#=%++*=@=%%%=@@+@+@#=+*#@==++@.  ",
"...        X               @$=%=#=++*@%==#=@-+*#=%=@##@#@@=#@.  ",
"XXXX       X               @#@@@=@***@=@#@=-+*@@=#@==%=@O#@#@.  ",
"X#@OOO&@#XX.               .X       .@@#@+=**##=%%=@@#==#####.  ",
"X@O-OOOO+&@@@#.X          X.XX       X.......................   ",
"X@O-+@@@#@%+--OOO+++++*@#@##..XXXXX                            X",
"X@%#+#%%=%=%@@@&&&&&&&&*==%=====@X.X                          XX",
"X@%%#%=@@#%@=%==@@@@@***@#%o--@%# X.XXX                     XXX.",
"X@=$%=%-+*==$@$%%O&#=@@@@=@@-*@##  .X*+++#XXX...*+&****XXXXX....",
"X@%%@=#+**%@%$==@$%%@%=$=#@$@@=#.  XX+***#oo=..&OOO&#O@@$O=##XX.",
"X@@@###**@#@#@#@###@#@@@#######..   X#***#===#.@#####@@@O&@@o# .",
"X@#X                                X=**####@#X@@=@@OO@@&*@%@. .",
"X                                   X **.=#=@#X#@#@OO&#@*@@%@. .",
".X                                   X**       X..**...**..... .",
"....XXXXXXXX                         XXXX      XX              .",
"                                                                "
};
