/* XPM */
static char *cropped_95_png[] = {
/* columns rows colors chars-per-pixel */
"64 64 16 1 ",
"  c #5C4020",
". c #483818",
"X c #543C1C",
"o c #382C14",
"O c #403018",
"+ c #A0643C",
"@ c #905C34",
"# c #80502C",
"$ c #C87C4C",
"% c #BC7848",
"& c #28200C",
"* c #646464",
"= c #484848",
"- c gray33",
"; c gray22",
": c white",
/* pixels */
"                                                                ",
"................................................................",
"XXXXXXXXXXXXXXXXXXXXXXXXXXXXXXXXXXXXXXXXXXXXXXXXXXXXXXXXXXXXXXXX",
"oOoOOoX+@@@@@@@@@@@@@@@@@@@@@@@@@@@@@@@@@@@@@@@@@@@@@@@@o.oOooOo",
"O oX O#$%$$%%%$%$%$%%%%$%%$%$%%%$%%%%$$$%%$$%$$%%%$$%%%%O#o oo o",
"O oX O#$$$%%$%$%$$%%%$$%$$%%%$%%%$$%%$$$%$%$%%$%%$%$$$$$O#o oo o",
"O o  O#$%%%$$$%$%%$%%$$%$$$%%%%$%$%%$$$$$$%%$%%$%$%$$%$$O#o oo o",
"O o  O#$$$%%%%%$$$%$%$$%%%%%$%$$$%%$%%$%%%$%%$%%%$%%%%%%O#o oo o",
"O oX O#$%%$%%$$$$%$%$%%$$$%$$%$$$$%%%$%$$%%%%%%%$$$$%$$$O#o oo o",
"O oX O#$$$$$%%%%$$%%%$$%$%%$$$%%%$%$%%%$%$%$$%$$%$$%%%%%O#o oo o",
"O o. O#$%$$$%$%$$$%%%$$%$%$%%%%$$%%$$$$$%$$$%$$%%$$%%$$%O#o oo o",
"O o. O#$$$%$$%%$$%%$$$$%%$%%$%$$%$%%%$%$%%%$%%$%%%$$%%%%O#o oo o",
"O Oo O#$$$%$%$%%$%$$%%%%$$%$$$$$$$%%%%%$%$%$%%$%$%$%$%%%O#o ooXo",
"O Oo O#$$$%%%%%$$%$$$$$%$$$$$%%%%$%$%$%%%%$$%$$%%$%$$%$$O#o oo.o",
"O Oo O#$$$$$%%$%$$$$$$$%$$%%%%%$$%%%%$%%%$$%%$%%$%$$$%$%O#o oooo",
"O Oo O#$%%%%$$%$%$%%%%%%%%%%$$$%%$%%$$%%%%$%$$%$%$%%%%%$O#o oo&o",
"O .o O#$%$%%%$%%%%%%$$$%%%$$%%$$%%$%%$$$$%%$$%$$$%%%$$$%O#o oo*o",
"O .oXO#$$%%%%%%%$$%$$$$$$$%$$%$$%%%%$$$$%%%$%%$%%$$%%%$%O#o ooOo",
"O XoXO#$$$$$$%%$%%%%$$$%%%%$$%$%%%%$%$%$%$$%$$%$$$%$%%$$O#o oo.o",
"O XoXO#$%$$%$%%$%$%%%$$%$$%$%$$%$$$%$$%$$%$$$$$$%%%$$$%%O#o ooXo",
"O Xo.O#$%%%$$%$%%%$$%$$$$$$$%%%%$$$%$%$%$%%%%%%%$%$%$%$%O#o oo o",
"O  o.O#$$$%%%$%%$%$%%%%$$$%%%$%$$$%$%$%%$$%%$%%$$%$$%$$%O#o oo o",
"OX ooO#$%$$%%%$%$%$%%%%$%%$%$$%%%%$$%$$$$%%$%%$%$%%%%$$%O#o oo o",
"OX OoO#$$$$$%%$%$$%%$%%$$$$%%%$%$%%$%$%%$$%$$%$$%$%$%%$%O#o oo o",
"O. OoO#$$%%$$$$$%$$$%$$%$$%$%%%%%%$$%$%$%%$$%$$%%%%%%$$%O#o oo o",
"O. .oO#$$%$%%%%%$%%%$%%$%$%%%%$$$%$$%%%%%%%$$%$$%$$$%$$%O#o oo o",
"OO .oO#$%%%%%%%%%%%%$%%%%%%$$%$%%$$$%$$%%$$$%$$%%$%%$$$%O#o oo o",
"OO XOO#$$$%%$$%$%%$%$%%%$$%$%%%$$%$%$$$%$$%$$%$$%$$$$%$$O#o oo o",
"OO XOO#$%%%$$$$%$$%$%%%%%%%%$$%$$$%%$%$%%%$$$$$$%%%$$$%$O#o oo o",
"Oo  .o#$%$%%%%%$%%$$$%%%$%$%$%$$%$%$$$$%%$$$$$$$$$%%$%%%O#o oo o",
"Oo  .O#$$$$$%$$%$%%$%%%$$%%$$%$%%$$$%$%$$%$$%$$%$%%$$%$$O#o oo o",
"OoX XO#$%%%%%%%%%%%%$%%%%%%$$%$%%$$$%$$%%$$$%$$%%$%%$$$%O#o oo o",
"OoX XO#$$$%%$$%$%%$%$%%%$$%$%%%$$%$%$$$%$$%$$%$$%$$$$%$$O#o oo o",
"Oo.  O#$%%%$$$$%$$%$%%%%%%%%$$%$$$%%$%$%%%$$$$$$%%%$$$%$O#o oo O",
"Oo.  O#$%$%%%%%$%%$$$%%%$%$%$%$$%$%$$$$%%$$$$$$$$$%%$%%%O#o oo O",
"OoO  O#$$$$$%$$%$%%$%%%$$%%$$%$%%$$$%$%$$%$$%$$%$%%$$%$$O#o oo O",
"OoO  O#$$%%%%$%%%%%$$$$%%%%$%$%$$%%$$%%%$$$$%$$%$$%$%$$%O#o oo O",
"OoO  O#$%%$$$$%%$%$%$%%%%$$%$$%$%$$$$%%%$%$%%$%%%%%$$%$%O#o oo .",
"OooX O#$%%$%%$$$$%$$%$$%$%$%$%$$$%$$$$%%%%%$%%$%%$$$%%%%O#o ooX.",
"OooX O#$%$$%%%%%%%$%$$$%%%%$$%$%%%%$%$%$%$$%$$%$$$%$%%$$O#o oo.X",
"Ooo. O#$%$$%$%%$%$%%%$$%$$%$%$$%$$$%$$%$$%$$$$$$%%%$$$%%O#o oo=X",
"Ooo. O#$%%%$$%$%%%$$%$$$$$$$%%%%$$$%$%$%$%%%%%%%$%$%$%$%O#o ooO ",
"OOoOXO#$$$%%%$%%$%$%%%%$$$%%%$%$$$%$%$%%$$%%$%%$$%$$%$$%O#o oo. ",
"OOoOXO#$%$$%%%$%$%$%%%%$%%$%$%%%$%%%%$$$%%$$%$$%%%$$%%%%O#o ooX ",
"OOoO.O#$$$%%$%$%$$%%%$$%$$%%%$%%%$$%%$$$%$%$%%$%%$%$$$$$O#o ooX ",
"O.oo.O#$%%%$$$%$%%$%%$$%$$$%%%%$%$%%$$$$$$%%$%%$%$%$$%$$O#o ooX ",
"O.OoOO#$$$%%%%%$$$%$%$$%%%%%$%$$$%%$%%$%%%$%%$%%%$%%%%%%O#o ooO ",
"OXOoOO#$%%$%%$$$$%$%$%%$$$%$$%$$$$%%%$%$$%%%%%%%$$$$%$$$O#o ooO ",
"OXOoOO#$$$$$%%%%$$%%%$$%$%%$$$%%%$%$%%%$%$%$$%$$%$$%%%%%O#o ooo ",
"O .ooO#$%$$$%$%$$$%%%$$%$%$%%%%$$%%$$$$$%$$$%$$%%$$%%$$%O#o oooX",
"O .OoO#$$$%$$%%$$%%$$$$%%$%%$%$$%$%%%$%$%%%$%%$%%%$$%%%%O#o oooX",
"O XOoO#$$$%$%$%%$%$$%%%%$$%$$$$$$$%%%%%$%$%$%%$%$%$%$%%%O#o ooo.",
"O X.oO#$$$%%%%%$$%$$$$$%$$$$$%%%%$%$%$%%%%$$%$$%%$%$$%$$O#o ooo.",
"OX .OO#$$$$$%%$%$$$$$$$%$$%%%%%$$%%%%$%%%$$%%$%%$%$$$%$%O#o OooO",
"O. XOO#$%%%$$%$%%%$$%$$$$$$$%%%%$$$%$%$%$%%%%%%%$%$%$%$%O#o OooO",
"O. XOO#$$$%%%$%%$%$%%%%$$$%%%$%$$$%$%$%%$$%%$%%$$%$$%$$%O#o Oooo",
"OOX OO#$%$$%%%$%$%$%%%%$%%$%$%%%$%%%%$$$%%$$%$$%%%$$%%%%O#o Oooo",
"OO. XO#$$$%%$%$%$$%%%$$%$$%%%$%%%$$%%$$$%$%$%%$%%$%$$$$$O#oX.ooo",
"Oo. XO#$%%%$$$%$%%$%%$$%$$$%%%%$%$%%$$$$$$%%$%%$%$%$$%$$O#oXXooo",
"OoOXXO#$$$%%%%%$$$%$%$$%%%%%$%$$$%%$%%$%%%$%%$%%%$%%%%%%O#o.XOoo",
"Ooo..O#$%%$%%$$$$%$%$%%$$$%$$%$$$$%%%$%$$%%%%%%%$$$$%$$$O#o. Ooo",
"OoooOO#$$$$$%%%%$$%%%$$%$%%$$$%%%$%$%%%$%$%$$%$$%$$%%%%%O#oO Ooo",
"OooooO#$%$$$%$%$$$%%%$$%$%$%%%%$$%%$$$$$%$$$%$$%%$$%%$$%O#.oOOoo",
"OooooO-*************************************************-#.oo;oo"
};
