/* XPM */
static char *cropped_63_png[] = {
/* columns rows colors chars-per-pixel */
"64 64 32 1 ",
"  c #905C34",
". c #80502C",
"X c #5C4020",
"o c #543C1C",
"O c #6C4824",
"+ c #885830",
"@ c #A0643C",
"# c #A86840",
"$ c #483818",
"% c #9C6038",
"& c #744C28",
"* c #382C14",
"= c #403018",
"- c #28200C",
"; c #E00000",
": c #A40000",
"> c #640000",
", c #580000",
"< c #BC0000",
"1 c #700000",
"2 c #4C0000",
"3 c #C87C4C",
"4 c #880000",
"5 c #C80000",
"6 c #FC0000",
"7 c #646464",
"8 c #2C2C2C",
"9 c #484848",
"0 c gray22",
"q c #980000",
"w c gray33",
"e c white",
/* pixels */
"          .XoXoXoOO+  @#X$$$$$X..+%%%%%%%+X#%%%%%%%%+$@         ",
"         .ooXoooXO&  @##$$$$$$...+o+%%%%+X#%%%%%%%%+$@          ",
"       .XXooooXXXO. @##.X$$$$X..+o$$+%%++#%%%   %%+$.@  +       ",
"      .XoooXoooXO&.@##.XOX$$X. +oo$$$o++X#%%  %%%+$$@        ++ ",
"    .Xo$$X$$OXOO. @##XXO&&X$.++oo$o$o$$X#% % %%%+**o@      +    ",
"   .X*o$o$OXOOO. ##.XOO&&&X.+&XX$o$$$$=#%%  % %+***@  +++    +  ",
" ..=*o$o$OOO...+#%XO&&&&+.@+&Xooooo$o=@%  %+%%+****X    + + +   ",
".X=*$$ooO....+%%%XO&&&.++@+&XXooX$$o= +%++  %+$*o&$*X++++++  +  ",
"X**=O....++%% +XX&&&.++@  &XXoXoXoXo=+ %+ +%+$o&&&$$*X& + + +  .",
"*=oooO%%%% % XXO&&.+++@ +&XXXXoooXo=O& +++%+$o&&+$$$$*X+ +++ +.X",
"oO..Oo%%%%%XXO&&. + +@ &&XXXoXXXoX=.OXX+ ++$X&++&$$o$*XX.+ +..o*",
".. ++&o% OXo&&&.++++@++&XXXoXXXXX=X.OX$$++$X.++ Xo$$$*$$$.+.XX=O",
"  &ooooOOO.OoO..+ +@+&&XXXXXXXoX$oX+OXX$$X..++  &$oo$****$XXoO..",
"&&$$$$$$... %O$$++@@.&XXXXXoXXXo=XO@.OX$..OO+  @+&oo$*.X*$XO...@",
" +&&$$$$..++ %O$$@@@@.XXXXXoXXX$oO   OX..OX+  @  +&o$*X.$X....@ ",
"    +&$$o.+ +%O$$@%@@..XXXXXXo$*O    .X.OX& @@%%  &&$*=X......@ ",
"       o..+o  +O@ %%%@..XXXXX$*-&... .&OX& @%%%%% +..X=......@  ",
"      .o..OXo+O$%;@%;:@.XXXX$=-$....++&X+ @%%   %%+$oXoo.....@ +",
"     .o....OXo.%   % ;@@.XX$=--X&&...+O+ @%     %+$$oXXoo...@ + ",
"++  .o.......$@X +%  %@@+.$=-*$X&&&&X.+ @%  +  %+$$$oXXXo..@  ++",
"++ .o...X....@.XX+   %@:;.==*$XXXX$=X+@@%++.+%++$$$oXXXXo..@  + ",
"+ .o.. &XX..+@XXXX+%%;@@ X==$$XXX==X+@% +..+%+%+XX   .XXo.@ ++++",
"..o.  &XX=.+@.XXXXX% @@.XXoX$oooo=X+@++&.+.O+ +$ X   .Xo..@+& ..",
".o. &XXX$=X+@XX>XXo$ .XOXXXo$=o=O&=$$&.++&+..+$OX..   .o.@ ++&. ",
"o.#XXXXX=o+@.XXXXX,$+ +OOOOXXX=o& .=$$&.++. +$..oX..  ... +.&&+&",
".#  XXX==.@.XXXXXo$O @<+OOOOX==&   &=$$..++.$O.Xo$...@..+.&.&&&o",
"#    X$=.%@.1,XX>o, @++:+OOX==o  @@&X=$$.. $O .oo$++XX. .O&&.&o ",
"    .==o%@.XXXX>>$O@+:+++OOX=$X.@    $$o$ooO@.OX$X++XX .X$O&&o #",
" +  O==+%#.XXXXX>$@+<::+++X=$X.+.     X$oo. +.oX$X%+. .X$==Oo # ",
" + .o=+%#.XXX1Xo>O+:+:+++O=$X.+&..     o.+ @.OX$XXXX .Xo$==$.# +",
"++ O=.%#.OXXXX,o2:++++<+O=$X..&&o..   &.  #@.XX$.X. .XX$oo=o.   ",
"++.=o%# +.OXXXo$O +:+ +O=$X..+&&Oo&&$O.  ##.OO$X..  ..Xo=--. .++",
"++Oo+@   +.OXXo2+% :;+O2$X..+&&&Ooo*XO+ ##3OOX$..    .=---*$..+ ",
" .o+@     +.Oo$O+%  412$X..+&&&&Oo*$XO+##3++O$X.     =---=$*o. +",
" oo @      +.O2X.:% 12oX..++&&&&X*=$X.%##%%+X$.     =---=oO$*o++",
" o+@        +XX&.+OO2XX.++++.&&Oo==X+@#%%%%%oX     .---=oOoo$*. ",
"..@        .XXX&.O=2..   ++++.&o*$$X.%%%%%%.o.     =--=ooOooo$. ",
"o@        .XXXX&O222      ++++.*$$XX.+%%%%%oo     o--=ooOooo$O..",
"*        .XXXXXO=.22. 5   ++++.*=$XXX+%%%%&o     .-==oooOooo$X.o",
"**      .XXXXXo$+&22X.   6 +++X==$$XX&+%%%X      o-=oO Ooooo=X.*",
"***    O$$$oX$$++&o2=X     ++&$$$===OX+%%&*XO   .-oo+ @OOoo$=oo*",
"$=o* +OO$$$oo$+++oo=2$.5   +&$$$$$===OO+&o**XO  ooO+ @#+Ooo=-=o*",
"=$$o+OOXX$$oO++ &oo$22X. 4. XXo$oXoo=XO+%.o**XO.O.+ @#@ OOo---=*",
"$oo+OOXOXOo$O+ +>o,=222o+. XXoXo$$$o&++%# .o**$O.++ #@  +O$*-=**",
"$o+OOXOXXXOO++ &oo=$22224 &Xo$oo$ooX&+%#@% .o*o.++ #@    OX*-*$*",
"o+OOXOOXXXX++ +oo,=,o22.% XXXXoXoXXo++#@% + .oX++ @@     O=-*-*o",
"+OOOOXOXOO++  &o$o2,,225%&XoXo$$o$oo++@%     .O++ #     .X**-=o.",
"OOOXOOXXOO+ %+oo>o$,=254&XXXXXXXo$XX+@% +     O+ %      .O--=o++",
"OOOXOOOOO+  %&oooo$,->54.OXXXoXooXX&+%    +  OO %      .X*=-o++O",
"O&OOOXOO+  @&ooo2=,->54+..OXXXXXooo..   ++   O.% +     .X*=o+%+O",
"O&O&&OO++ @&oooo==--54  +..OXXXXXX$O&       O.%+   +  .X==o+%OOO",
"O&&&OOO+ @% .o>=*-->5%   +..OXXXXX$XO.    &O. % ++    .X=oO % OO",
"&O&O&O+ @% ++.oo---54     +..OXXXooXO.   Oo. %++++ + .X$=o+%%+ O",
" O&OO+ @ ++++Oo*-->44      +..OXX$ooX.   oO %. .  + +.X$$O%%   +",
" +&O++@ ++.++o*---444       +..OX$=oXO. oO.++.+.+++ .X$$O %  + +",
"  ..+@++++++.o*-->O44O       +..o=*ooO.oO. .+..+.. +.X$$O% +   +",
" ..+@+++.+++.o-->+%O44        +.***ooO$o. . +.+..++OX$$O% +   ++",
"...@++.+++...o--o% O44         o----o=$O++.....+..+O$$O+%+++ +  ",
"..@+++++.&+.O*-o+ + 44O      +o*----*=o+.&&X.X...+OX$O+%++ +  + ",
"...++..&...+O*-. + +O44     +o-------*o&&XX&X.&&..O$$O%++++ +   ",
".o.&..+&..&.o-o++++++44  + +o---------=oX&X&.&.X+OX$O%++ ++++ ++",
"==oo&&.&&.&.o-..+++++O4O+ O7878-------*$oXXX&&&X.O$O%++++++++++=",
"====o&.&&..O-.....++ +O4+O77798---808--*$XX.XX&+OX$.++++ ++  ++=",
"======o&&&.o,,,,11111qqqqqww900000008***=XXX&&&.X$.+++++++++++=="
};
