/* XPM */
static char *cropped_59_png[] = {
/* columns rows colors chars-per-pixel */
"64 64 37 1 ",
"  c #905C34",
". c #80502C",
"X c #5C4020",
"o c #543C1C",
"O c #6C4824",
"+ c #885830",
"@ c #A0643C",
"# c #A86840",
"$ c #483818",
"% c #9C6038",
"& c #744C28",
"* c #D40000",
"= c #382C14",
"- c #4C0000",
"; c #403018",
": c #C80000",
"> c #700000",
", c #880000",
"< c #580000",
"1 c #640000",
"2 c #B00000",
"3 c #7C0000",
"4 c #980000",
"5 c #28200C",
"6 c #400000",
"7 c #646464",
"8 c #7C7C7C",
"9 c gray44",
"0 c #484848",
"q c gray55",
"w c #A40000",
"e c #FC5C5C",
"r c gray22",
"t c gray33",
"y c #BC0000",
"u c #C87C4C",
"i c white",
/* pixels */
"          .XoXoXoOO+  @#X$$$$$X..+%%%%%%%+X#%%%%%%%%+$@         ",
"         .ooXoooXO&  @##$$$$$$...+o+%%%%+X#%%%%%%%%+$@          ",
"       .XXooooXXXO. @##.X$$$$X..+o$$+%%++#%%%   %%+$.@  +       ",
"      .XoooXoooXO&.@##.XOX$$X. +oo$$$o++X#%%  %%%+$$@        ++ ",
"    .Xo$$X$$OXOO. @##XXO&&X$.++oo$o$o$$X#% % *%%+==o@      +    ",
"   .X=o$o$OXOOO. ##.XOO&&&X.+&XX$o$-$$;#%%  % %+===@  +++ :  +  ",
" ..;=o$o$OOO...+#%XO&&&&+.@+&X>oooo$o;@%  %+%%+====X  : + , +   ",
".X;=$$ooO....+%%%XO&&&.++@+&XXooX$$o; +%+*  %+$<o&$=X++++++  +  ",
"X==;O....++%% +XX&&&.++@  &XXoXoXoXo;+ %+ +%*$o&&&$$=X& + + +  ,",
"=;oooO%%%% % XXO&&.+++@ +&XXXX1ooXo;O& 2++2+$o&&+$$$$=X+ +:+ +.X",
"oO..Oo%%%%%XXO&&. + +@ &&3XXoX>XoX;.OXX+2++<X&4+&$$o$=XX.+ +..o=",
".. ++&o% OXo&&&.++++@++&XX>o>X>XX;X.4X$$4+$X.++ Xo$$$=$$$.+.XX;O",
"  &ooooOOO.OoO..+ +@:&&X>XX>XX>X$oX+OX1$1X.4+4  &$oo$====$XXoO..",
"&&$$$$$$... %O$$++@@.&XXXXXo>X>o-XO@1OX$1.OO+4 @+&oo$=.X=$XO...@",
" +&&$$$$..++ %O$$@@@@.>>X->>>>>-oO   O4.4OX44 @  +&o$=X.$X....@ ",
"    +&$$..+ +%O$$@%@@..XXXX->>3-O    .X.O444*@%%  &&$=;X......@ ",
"       o..+o  +O@ %%%@.>XX>>>3<-&... .&O<44*333%3 +..X;......@  ",
"      .o..OXo+O$%@@%@@@.XXXX$;-$....++&X+4*333  %%+$oXoo.....@ +",
"     .o....OXo.%   % %@@.XX$;-5X&&...+O+4*33333&%+$$oXXoo...@ + ",
"++  .o.......$@X +%  %@@+.$;-6$X&&&&X.34@3333&&31$$$oXXXo..@  ++",
"++ .o...X....@.XX+   %@%@.;666XX78$;<+@@%3333%++-$$o3XXXo..@  , ",
"+ .o.. &XX..+@XXXX+%%%@@ X6;6$XX8790+@% 3.333+%+XX   .XXo.@ ++++",
"..o.  &XX;.+@.XXXXX% @@.X6oX<6ooq970@++&.3333 +$ X   .Xo..@+& ..",
".o. &XXX$;X+@XXXXXo$ .XOXXXo$<6we00$$&.++3+X3+$OX..   .o.@ ++&. ",
"o.#XXXXX;o+@.XXXXXo$+ +O>OO>XX6e:0.;1$&3++.O1$..oX..  ... +.&&+&",
".#  XXX;;.@.XXXXXo$O @++OOOOX667w  &;$$..3+.-O.Xo$...@..+.&.&&&o",
"#    X$;.%@.XXXXXo$ @++++O>X6rtt>@@&X1$$.. -O .oo$++XX. .O&&.&o ",
"    .;;o%@.XXXXXX$O@+++++OOX;r0r@    $1o$o-O@.OX$X++XX .X$O&&o #",
" +  O;;+%#.XXXXXo$@+++++++X6$rr+.     11o-. +.oX$X%+. .X$;;Oo # ",
" + .o;+%#.XXX<Xo$O+ +++++O;$X.+1..     1.+ @.OX$XXXX .Xo$;;$.# +",
"++ O;.%#.OXXXXXo$ ++++++O;$X..&&o..   &.  4@.XX$.X. .XX$oo;o.   ",
"++.;o%# +.OXXXo$O + + +O;$X..+&&Oo&&$O.  ##.OO$X..  ..Xo;55. .++",
"++Oo+@   +.OXXo$+% +++O;$X..+&&&Ooo=XO+ yyuOOX$.4    .;555=$..+ ",
" .o+@     +.Oo$O+%   O;$X..+&&1&Oo=$XO+yyu++O$X.     ;555;$=o. +",
" oo @      +.O$X.+% O;oX..++&&&&X=;$X4%#3%%+X$.     ;555;oO$=o++",
" o+@        +XX&.+OO;XX.++++.&&Oo;;X+@#%3%%%oX     .555;oOoo$=. ",
"..@        .XXX&.O;;..   ++++.&o=$$X.%%%3%%.o.     ;55;ooOooo$. ",
"o@        .XXXX&O;oo      ++++.=$$XX.+%%3%%oo     o55;ooOooo$O..",
"=        .XXXXXO;.o$+     ++++.=;$XXX+%%3%&o     .5;;oooOooo$X.o",
"==      .XXXXXo$+&o;o      +++X;;$$XX&+%3%X      o5;oO Ooooo;X.=",
"===    O$$$oX$$++&o;;o     ++&$$$;;;OX+%3&=XO   .5oo+ @OOoo$;oo=",
"$;o= +OO$$$oo$+++oo;;$+    +&$$$$$;;;OO+&o==XO  ooO+ :#+Ooo;5;o=",
";$$o+OOXX$$oO++ &oo$;;$  +. XXo$oXoo;XO+%.-==XO.O.+ @#@ OOo555;=",
"$oo+OOXOXOo$O+ +oo$;o;$o+. X-oXo$$$o&++%# .o-=$O.++ #@  +O$=5;==",
"$o+OOXOXXXOO++ &oo;$$$$o. &Xo$o-$ooX&+%#:% .-=o.++ #@    OX=5=$=",
"o+OOXOOXXXX++ +oo$;$ooo.% XXXXoXoXXo++#@% + .oX+: @@     O;5=5=o",
"+OOOOXOXOO++  &o$oooo;;#%&XoXo1$o$o-++@%     .O++ #     .X==5;o.",
"OOOXOOXXOO+ %+oooo$o;; #&XX1XXXXo$XX+@% +     O+ %      .X55;o++",
"OOOXOOOOO+  %&oooo$;5O#%.OXXXoXooXX&+%    +  OO %      .X=;5o++O",
"O&OOOXOO+  @&oooo;;5O#%+..OXXXXXooo..   ++   O.% +     .X=;o+%+O",
"O&O&&OO++ @&oooo;;55 @  +..OXXXXXX$O&       O.%+   +  .X;;o+%OOO",
"O&&&OOO+ @% .oo;=55o#%   +..OXXX1X$XO.    &O. % ++    .X;oO % OO",
"&O&O&O+ @% ++.oo555 @     +..OXXXooXO.   Oo. %++++ + .X$;o+%%+ O",
" O&OO+ @ ++++Oo=55o#%      +..OXX$ooX.   oO %. .  + +.X$$O%%   +",
" +&O++@ ++.++o=555 @        +..OX$;oXO. oO.++.+.+++ .X$$O %  + +",
"  ..+@++++++.o=55o@%         +..o;=ooO.oO. .+..+.. +.X$$O% +   +",
" ..+@+++.+++.o55o+%+          +.===ooO$o. . +.+..++OX$$O% +   ++",
"...@++.+++...o55o%             o5555o;$O++.....+..+O$$O+%+++ +  ",
"..@+++++.&+.O=5o+ +          +o=5555=oO+.&&X.X...+OX$O+%++ +  + ",
"...++..&...+O=5. + +++      +o5555555OX&&XX&X.&&..O$$O%++++ +   ",
".o.&..+&..&.o5o++++++++  + +o555555555&XX&X&.&.X+OX$O%++ ++++ ++",
";;oo&&.&&.&.o5..+++++ + + Oo5=55555555=XXXXX&&&X.O$O%++++++++++;",
";;;;o&.&&..O5.....++ ++ +O55;5555555555=XXX.XX&+OX$.++++ ++  ++;",
";;;;;;o&&&.o........+  &O5oo;55555555===oXXX&&&.X$.+++++++++++;;"
};
