/* XPM */
static char *cropped_60_png[] = {
/* columns rows colors chars-per-pixel */
"64 64 35 1 ",
"  c #BC7848",
". c #A86840",
"X c #6C4824",
"o c #80502C",
"O c #905C34",
"+ c #9C6038",
"@ c #D08050",
"# c #DC8854",
"$ c #B47044",
"% c #C87C4C",
"& c #FC2020",
"* c #885830",
"= c #EC0000",
"- c #640000",
"; c #C80000",
": c #A0643C",
"> c #880000",
", c #FC0000",
"< c #E00000",
"1 c #BC0000",
"2 c #744C28",
"3 c #700000",
"4 c #4C0000",
"5 c #980000",
"6 c #B00000",
"7 c #D40000",
"8 c #580000",
"9 c #A40000",
"0 c #7C0000",
"q c #5C4020",
"w c #E88C58",
"e c #543C1C",
"r c #FC5C5C",
"t c #403018",
"y c white",
/* pixels */
"          .XXooOO++.. @#OoooooO..$%%%%%%%$O&%%%%%%%%$o@         ",
"         .XXooo*OO++.@=#ooo-oo...$*$%%;%&O#&%%;%%%%$o@          ",
"       .XXXXooo*OO++. #:OooooO..$*o>$%%$$#%%%   ,%$o.@  $       ",
"      .XXXXoo***OO++.$#::OooO. $**->o*$&O,%%; %%%$oo@        $$ ",
"    .OXXoXoo**OO++++. O:::Oo.=$*-o*>*ooO#< < <%,$XX*@      $    ",
"   .OXoooo**OO++...$%O::1.Oo$:-Oo*o-oo-#%<  %;%$XXX@  $$$    $  ",
" ..2X*o*o+++...$$  OO:::.o@$:O*->**-*-@; <%$<%$XXXXO    $ $ $   ",
".O2Xoo**+....$%%%OO:::..$@$3>O>*----- $;$<  ;$oX*:oXO$$$$$$  $  ",
"OXX2+....$$%% $OOO::..$@  :OO*O33---4; %;<$;$o*:::ooXO: $ $ $  .",
"X2**.%%%%% % OOO:::.$$@=$:OOO>*>>--4>5;$;;%;o*::$ooooXO$ $$$ $.O",
"*+..$%%%%%%OO::::.$$$@ ::OOO*OOO*>4463>;;;;3O:7$:oo*oXOO.$ $..*X",
".. $$: % OOoo::.$$$$@$$:OOO>O>>>>>46333>;;3O57$ O*oooXooo.$.OO2+",
"  :****.$O.O%o..$ $@$:>OO36OOO*O>36>333333857   :o**oXXXXoOO*+..",
"::oooooo... %+oo$$@@.:OOOOO*6OO*24733333387777 @$:**oX.OXoO+...@",
" $::oooo..$$ %+oo@@@@>OOOOO*OO>o47,*3333887$  @  $:*oXO.oO....@ ",
"    $:oo..$ $%+oo@%@@..OO>O>O*o37,7 *333875,@@%%  ::oX2O......@ ",
"       *..$*  $+@ %%%@..OOOOOoX8,77  *3875 @&%%%% $..O2......@  ",
"      .*..+O*$+o%@@%@@@.OOOOo28O.77   87< @%%   %%$o*O**.....@ $",
"     .*....+O*.%   % %@@.O>o289..77  $7$<@%     %$oo*OO**...@ $ ",
"$$  .*.......o@O $%  %@@$.o28o9.$77 O7$ @%  $  %$ooo*OOO*..@  $$",
"$$ .*...O....@.OO$   %@%@.288o9.$7927$@@<$$.$%$$ooo*OOOO*..@  $ ",
"$ .*.. :OO..$@OOOO$%%%@@ 2880O9.$927$@% $..$%$%$OO   .OO*.@ $$$$",
"..*.  :OO2.$@.OOOOO% @@.o8800*9.*0OXO$$:.$.+$ $o O   .O*..@$: ..",
".*. :OOOo2O$@OOOOO*o .O+oOO*059201OXXO.$$:$..$o+O..   .*.@ $$:. ",
"*.#OOOOO2*$@.OOOOO*o$ $++++OO5601,OXXXO.$$. $o..*O..  ... $.::$:",
".#  OOO22.@.OOOOO*o+ @$$++++O281,, OXXX..$$.o+.O*o...@..$.:.:::*",
"#    Oo2.%@.OOOOO*o @$$$$++O288;,   OXX+.. o+ .**o$$OO. .+::.:* ",
"    .22*%@.OOOOOOo+@$$$$$++O8888,    OX*:**+@.+OoO$$OO .Oo+::* #",
" $  +22$%#.OOOOO*o@$$$$$$$O8XO13>,   oO***. $.*OoO%$. .Oo22+* # ",
" $ .*2$%#.OOOOO*o+$ $$$$$+8XO.$>3>, .o**.$ @.+OoOOOO .O*o22o.# $",
"$$ +2.%#.+OOOOO*o $$$$$$+8oO. +>X3>XOO+.  #@.OOo.O. .OOo**2*.   ",
"$$.2*%# $.+OOO*o+ $ $ $+8oO. ++>o>X8o+.  ##.++oO..  ..O*2qq. .$$",
"$$+*$@   $.+OO*o$% $$$+8oO. $OO>+308O+$ ##w++Oo..    .2qqqXo..$ ",
" .*$@     $.+*o+$%   +8>O.. +O+3>380O+$##w$$+oO.     2qqq2oX*. $",
" ** @      $.+oO.$% +8>O.. $++O3380oO.%##%%$Oo.     2qqq2*+oX*$$",
" *$@        $OO:.$++8>O.$  $.+O3382O$@#%%%%%*O     .qqq2*+**oX. ",
"..@        .OOO:.+28>.    $$$.+38eoO.%%%%%%.*.     2qq2**+***o. ",
"*@        .OOOO:+2*;;     $$$$.3eo:$.%%%%%%**     *qq2**+***o+..",
"X        .OOOOO+2.*>;     $$$$.e2O:$$%%%%%:*     .q22***+***oO.*",
"XX      .OOOOO*o$:*>;;     $$$O88oO$$%%%%%O      *q2*+ +****2O.X",
"XXX    +ooo*Ooo$$:*>8;     $$:388882+%%%%:XO+   .q**$ @++**o2**X",
"o2*X $++ooo**o$$$**>08$    ::>>3-8882++$:*XXO+  **+$ @#$+**2q2*X",
"2oo*$++OOoo*+$$ :**>03;  r3:O>>>333-8O+$%.*XXO+.+.$ @#@ ++*qqq2X",
"o**$++O+O+*o+$ $**o0038*r5 OO*665033:$$%# .*XXo+.$$ #@  $+oXq2XX",
"o*$++O+OOO++$$ :**203383; :O*o;66>0>:$%#@% .*X*.$$ #@    +OXqXoX",
"*$++O++OOOO$$ $**o203883% OOOO;6650-$$#@% $ .*O$$ @@     +2qXqX*",
"$++++O+O++$$  :*o**3883#%:O*O*6669>*$$@%     .+$$ #     .OXXq2+.",
"+++O++OO++$ %$****o383 #:OOOOO5;695:$@% $     +$ %      .+qq22$$",
"+++O+++++$  %:****o88+#%.+OOO*O;690$$%    $  ++ %      .OX2q*$$+",
"+:+++O++$  @:****228+#%$..+OOOO;69-.    $$   +.% $     .+X2*$%$+",
"+:+::++$$ @:****22q8 @  $..+OOO669o+        +.%$   $  .O22*$%+++",
"+:::+++$ @% .**2Xq8*#%   $..+OO56>o+.     :+. % $$    .+2*+ % ++",
":+:+:+$ @% $$.**qq8 @     $..+OO6>o*.    +*. %$$$$ $ .Oo2*$%%$ +",
" +:++$ @ $$$$+*Xq8*#%      $..+O60X*O.   *+ %. .  $ $.+oo+%%   $",
" $:+$$@ $$.$$*Xqq8 @        $..+6-2**.  *+.$$.$.$$$ .Ooo+ %  $ $",
"  ..$@$$$$$$.*Xq8*@%         $..02Xo*O.*+. .$..$.. $.+oo+% $   $",
" ..$@$$$.$$$.*qq8$%$          $.tXXo**O*. . $.$..$$+Ooo+% $   $$",
"...@$$.$$$...*q8*%             *8tqoo2o+$$.....$..$+oo+$%$$$ $  ",
"..@$$$$$.:$.+Xq*$ $          $*X88ttX*+$.::O.O...$+Oo+$%$$ $  $ ",
"...$$..:...$+X8. $ $$$      $*eee8-et+O::OO:O.::..+oo+%$$$$ $   ",
".*.:..$:..:.*q*$$$$$$$$  $ $*eeee8-eeq:OO:O:.:.O$+Oo+%$$ $$$$ $$",
"22**::.::.:.*8..$$$$$ $ $ +*qXeeee8-qqXOOOOO:::O.+o+%$$$$$$$$$$2",
"2222*:.::..+q.....$$ $$ $+qq2qeeee8-----OOO.OO:$+Oo.$$$$ $$  $$2",
"222222*:::.*........$  :+q**2eeee8888800>596>-:.Oo.$$$$$$$$$$$22"
};
