/* XPM */
static char *cropped_89_png[] = {
/* columns rows colors chars-per-pixel */
"64 64 26 1 ",
"  c #2C2C2C",
". c #343434",
"X c #BC7848",
"o c #B47044",
"O c #885830",
"+ c #543C1C",
"@ c #A86840",
"# c #A0643C",
"$ c #744C28",
"% c #80502C",
"& c #5C4020",
"* c gray11",
"= c gray22",
"- c #905C34",
"; c #483818",
": c #9C6038",
"> c #6C4824",
", c #403018",
"< c #382C14",
"1 c #202020",
"2 c #302410",
"3 c #C87C4C",
"4 c gray25",
"5 c #7C7C7C",
"6 c #28200C",
"7 c white",
/* pixels */
" .XXXXXXXoO+ .oXooo@@@@@@@@@#$+ .@oooooooooooo#%&.XXXXXXXXXo%+* ",
" .XXXXXXXoO+ .oXooo@@@@@@@@@#$+ .@oooooooooooo#%&=XXXXXXXXXo%+* ",
" .oXooooo#%+ .ooo@@#########-$; .@oooo@@@@@oo@-$&=oXooooooo@%+* ",
" .oX@@@@@-$+ .oo@##---::::::-$+ .#@@@@@@@@@@@@-$&=oo@@o@@@o#$+* ",
" .oo@####->, .oX@##:---:::::-$+ .-@###########-$&=@@@@@@@@@#>;* ",
" .@@#::::O>, .oo@:::::----::-$+ .O#::::::::::-O>+=@@#######->,* ",
" .#@-----%>, .oX@::::::----:-$+ .O#-----------%>+=@#:::::::->,* ",
" .##--O-O%&, .oX@::::##:----->; .O:----------O%>+=@#-------O&,* ",
" .##-OOO%$&, .oo@::::###:---O>+ .O-OOOOOOOOOO%$>+.#--------%&,* ",
" .##O%%%%>+, .oo@::::##:----O>+ .%-O%%%%%%%%%%>&+.#-OOOOOOO%&,* ",
" .##O%%%%>+, .@o#:::###:----O>+ .%O%%%%%%%%%%$>&+.#O%%%%%%%$&,* ",
" .@#%$$$$>+< =@@@#:###:-----O$& .$%%$$$$$$$$$>>&;.#O%%%%%%%>+,* ",
" .##%>>>>&;< =#@@###-::----O%$& .>%$>>>>>>>>>>&+;.OO$$$$$$$>+,* ",
" .$%>&&&&+<1 =O@###-------OO%>& .>$>>>>>>>>>>&+;,.O%>>>>>>>>;<* ",
"  ++;;;;;,21 =O####----OOO%%>>+ .>>&&&&&&&&&++;,,.%%>>>>>>>&,<1 ",
"  2<<<<<221  .%----O%%%%$$$>>&+ .++++++++++++;,, .%$>>>>>>&+<*  ",
"   11  111  ..>$>>>>&&&&&&&&&+  ..,,,,,,,,,,,,,  .%$>>&&&&&,<*. ",
"..=..==..  ....                .....             .$$>&&&&+,<1 ..",
"XXXXo@#:-%>&+======.......=========.....  >>>>&& .$>>&&++,<*<>OX",
"XXXXXXXXo@@@@ooo@@#O>..ooooooo@#:--O%%$>  >$$>&; .>&++;;,<*1;%:X",
"XXXXXXXXXXXXXXXXXo@-> .$O%$$$$$$$$$$$$>+  +&&++, .,,,,<<<*1 &OXX",
"XXXXXXXXXooooooooo@->                         .....  1111  <>:XX",
"XXXXXXXXoooooo@@oo@->  .===..............................  ;%oXX",
"oXXXXXXoo@@@@@@@@@@-> .>$$$$>& .>>>>>>>&&+;..%@@@@@#-OO%$  &OoXX",
"ooooooo@@@@@@@@@@@@-> .>$>>>>&1.>>>>>>&&++; .@@######:-O$1 >:Xoo",
"oooooo@@@@@@@@@@###-> .>>&&&&&1.&&+++++++;,1.@@:-----:-O%1.%ooo@",
"oo@@@@@@@@@@@@#####-> .>>&&&&&1..,,,,,,,,,,1.@@###-----O$1 O@ooo",
"o@@###########------> .>>&+++&1....... 11111.@@####:---O%1.:@@@@",
"---OOOOOO%%%%%%%%OO%> .>>++++&1 -#@@@@#O%$$1.@@##:::::-O$1.-#---",
">>>>>>>>>&&&&>>>>>>>+ .>>+++&&1.@@######-O$1.@#--------%$1.>$>>>",
"                     ..>&+++&&1.@@:------O%1 >$>>>>>>>>>&1. 1***",
" ............=====.....>&+++&&1.@@###----O$11             .  111",
" .%#@o@@@@@@@@@@@@@@&..>>&++&&1.@@####:--O%1 ................   ",
" %@oXXX33333333333Xo$..&>&&++&1.@@##::::-O$1.-o@@@@@###-OOOO>&+ ",
" #oXXX3333333XXXXXXo% .+&&&++&1.oo@#::::-O$1.oooo@@@##------%>, ",
" @XXX33XXXXXXXXXXXo@% .,,,;,,,1.oo@#::::-O$1.@o@@#---OOOOOO%$>; ",
" oXXXXXXXXXXXXXoooo#% .        .oo@#::::-O$1.#@#-OOO%%%%%%%%$>+ ",
" oXXXXXXXXoooooooo@#$ ........ .oo@#::::-O%1.##-O%%%%%%%%%%%%>+ ",
" oXXXXXoooo@@@@@oo@-$ .>>$$$>> .@@##:::#-O$1.##O%%%%%%%O%%%%%>& ",
" @XXXXo@@@@@@@@oooo-$ .$%$$%%& .@@###:##-O%1.##-%%OOOOOOOOOO%$& ",
" @XXXoo@@@@@@@oooo@-$ .$%>>$%& .@@######--%1.O#-OOOOOOOOO-OOO$> ",
" @XXoo@@@@@o@@oooo@-$ .$%$$%%& .oo@######-O1.O:-OOOOO-------O$> ",
" @Xo@@@@@@@@@@@@@@@-> .>$>>$>& .@@######@#O1.O#--OOO--------O%> ",
" #@@###########@@#-O>  +&&&&+; .-@#######-O1.%---OOOOOOOOO--O$> ",
" $--------------#-O%>         ..%--------O%1 >%%%%%%%%%%%%%%$>> ",
"1 >>>>>>>>>>>>>>>>>>+ .=4444====&>>>$$$$>>>  +&>&&&&&&&&&&&&&&+ ",
"..                    .=:XXX:&==                 1111   111     ",
".====.=.......======...=@XXXo>.=................................",
"@@@@@@@@-:.$#@@oooo#$> .oXo@->.=ooooooooooooooooooooooooooooooo5",
"@@@oooo@-- #oo@@ooo#%& =oo#:O+ .@oo@@@@@@@@@@@@@@@oooo@@@@@@@@@o",
"---#@@@-O% #oo@####-$+ =o@--%+ .#@-----------------------------O",
"%%O----O%> #o@#----%>+ .##-O%+ .--O%%%%%%%%%O%%%%%OOOO%%%%%%OO%O",
"$$$%%%%$>> @@--OOO%>&; .$%%%>+1 %O$$$$$$$$$$$$$$$$$$$$$$$$$$$$$$",
"++&&&&&&&& @#O%$$>>&;    &>>&,1.>>&+++++++++++++++&&&+++++++++++",
",,,,,,,,;  ##%>>>&+; .>$ 1,++,  ;;,,,,,,,,,,,,,,,,,,,,,,,,,,,,,,",
"          .$%>+++,, .$-%> 1,, ..........   11111111111111111111 ",
"  ==.==..=44=.      .@@-O>   .-#oo@#-O%%>&+;,...............    ",
" .-oooooo@o@@ooooo-.=oo#-%+ .-@oXXXXXXoooooooooooooooooooo@@o-& ",
" =oXXXooo@@@@@@@-O> .o@-O%&1 @XXoooooooo@@@@oo@@@@@@@@@@@@@@#O+1",
" .oo@@@##-------%&, .@@-%$&1 oo@###-------------------------%>+1",
" .#@#----OOOO%%%>+< .@@O$>+1 ##----OOOOOOOOOOOOOOOOOOOOOO%%%$&;1",
" .O--O%%%%%%$$>>&;< .@#%>&+1 %--O%%%%%%%%%%%%%$$$$$$$$$$$$>>>+,1",
" .$%>>>>>>>&&&+++,< .OO>&+,1 >-O%$>>>>>>>&>>>&&&&&&&&&&&&&+++,<1",
" ..,,,,,,<<<<<<<<11 .4+,,< 1 ;+&++;,,,,,,,,<<<<<<<<<<<<<<<<<<261"
};
